<svg width="42" height="42" viewBox="0 0 42 42" fill="none" xmlns="http://www.w3.org/2000/svg">
<circle cx="21" cy="21" r="20" fill="#2F80ED" stroke="white"/>
<rect x="13.1074" y="16.4844" width="15.0058" height="9.09249" fill="#F9F9F9"/>
<path d="M17.9623 21.18C18.5583 20.9331 18.8413 20.2499 18.5945 19.6539C18.3476 19.0579 17.6644 18.7749 17.0684 19.0218C16.4724 19.2686 16.1894 19.9519 16.4362 20.5479C16.6831 21.1439 17.3664 21.4269 17.9623 21.18Z" fill="#2F80ED"/>
<path d="M24.8249 20.5495C25.0718 19.9535 24.7888 19.2702 24.1928 19.0234C23.5968 18.7765 22.9136 19.0595 22.6667 19.6555C22.4198 20.2515 22.7029 20.9347 23.2988 21.1816C23.8948 21.4285 24.5781 21.1455 24.8249 20.5495Z" fill="#2F80ED"/>
<path d="M30.0577 19.5621C29.9883 19.5467 29.9392 19.4852 29.9392 19.414V19.1085C29.9392 16.7179 27.9833 14.7619 25.5927 14.7619H22.5789C22.5169 14.7619 22.4611 14.7242 22.4381 14.6666C22.2113 14.1007 21.7269 13.666 21.1298 13.508C21.0633 13.4904 21.0169 13.4302 21.0169 13.3615V12.2703C21.4722 12.1107 21.7986 11.6776 21.7986 11.168C21.7986 10.5229 21.2757 10 20.6306 10C19.9855 10 19.4626 10.5229 19.4626 11.168C19.4626 11.6776 19.789 12.1109 20.2443 12.2703V13.3615C20.2443 13.4304 20.1978 13.4904 20.1314 13.508C19.5341 13.666 19.0498 14.1009 18.8231 14.6666C18.8001 14.7242 18.7443 14.7619 18.6823 14.7619H15.6685C13.2779 14.7619 11.322 16.7179 11.322 19.1085V19.414C11.322 19.4851 11.2727 19.5467 11.2035 19.5621C10.5149 19.7153 10 20.3296 10 21.0644C10 21.7991 10.5149 22.4135 11.2035 22.5667C11.2729 22.5821 11.322 22.6436 11.322 22.7148V23.0203C11.322 25.4109 13.2779 27.3669 15.6685 27.3669H20.4414C20.496 27.3669 20.5473 27.3927 20.5798 27.4365C20.6122 27.4802 20.6223 27.5367 20.6067 27.589L19.3425 31.8048C19.3235 31.8679 19.3476 31.9361 19.4018 31.9733C19.456 32.0106 19.5283 32.0087 19.5804 31.9683L25.5004 27.3984C25.527 27.3778 25.5596 27.3669 25.593 27.3669C27.9836 27.3669 29.9396 25.4109 29.9396 23.0203V22.7148C29.9396 22.6437 29.9888 22.5821 30.0581 22.5667C30.7466 22.4135 31.2615 21.7991 31.2615 21.0644C31.2615 20.3296 30.7466 19.7153 30.0581 19.5621H30.0577ZM27.7659 23.0203C27.7659 23.596 27.5385 24.1405 27.1256 24.5532C26.7127 24.9661 26.1684 25.1936 25.5927 25.1936H15.6681C15.0925 25.1936 14.5479 24.9661 14.1352 24.5532C13.7223 24.1403 13.4949 23.596 13.4949 23.0203V19.1085C13.4949 18.5328 13.7223 17.9883 14.1352 17.5754C14.5481 17.1625 15.0925 16.9352 15.6681 16.9352H25.5927C26.1684 16.9352 26.7129 17.1626 27.1256 17.5754C27.5385 17.9883 27.7659 18.5326 27.7659 19.1085V23.0203Z" fill="#2F80ED"/>
<path d="M22.004 22.3711H19.2558C19.2063 22.3711 19.1592 22.3924 19.1264 22.4294C19.0937 22.4664 19.0783 22.5158 19.0843 22.5649C19.1798 23.3336 19.8353 23.9286 20.6298 23.9286C21.4242 23.9286 22.08 23.3336 22.1753 22.5649C22.1813 22.5158 22.1661 22.4664 22.1333 22.4294C22.1005 22.3924 22.0534 22.3711 22.0038 22.3711H22.004Z" fill="#2F80ED"/>
</svg>
