<svg viewBox="0 0 78 102" fill="none" xmlns="http://www.w3.org/2000/svg">
<g id="Group 5898">
<g id="Rectangle 1" filter="url(#filter0_bi_705_52174)">
<path d="M77.6641 54C77.6641 45.1635 70.5006 38 61.6641 38H15.9998C7.1632 38 -0.000244141 45.1634 -0.000244141 54V80.118C-0.000244141 87.2118 5.75043 92.9624 12.8442 92.9624C14.6249 92.9624 14.8713 101.177 16.5781 101.177C18.3535 101.177 21.5866 92.9624 23.299 92.9624C36.38 92.9624 47.8793 92.9624 61.661 92.9624C70.4975 92.9624 77.6641 85.799 77.6641 76.9624V54Z" fill="url(#paint0_linear_705_52174)" fill-opacity="0.3"/>
</g>
<g id="Logo">
<g id="Group 9">
<rect id="Rectangle 16" x="26.1855" y="57.6719" width="25.468" height="15.4319" fill="#F9F9F9"/>
<path id="Vector" d="M34.423 18.9066C35.4345 18.5013 35.9148 17.3796 35.4958 16.4011C35.0768 15.4227 33.9172 14.9581 32.9057 15.3633C31.8942 15.7686 31.4139 16.8903 31.8328 17.8688C32.2518 18.8472 33.4115 19.3119 34.423 18.9066Z" fill="#2F80ED"/>
<path id="Vector_2" d="M46.071 17.8674C46.49 16.889 46.0097 15.7673 44.9982 15.362C43.9867 14.9567 42.827 15.4213 42.408 16.3998C41.9891 17.3782 42.4694 18.4999 43.4809 18.9052C44.4924 19.3105 45.652 18.8459 46.071 17.8674Z" fill="#2F80ED"/>
<path id="Vector_3" d="M54.9523 16.2467C54.8345 16.2214 54.7512 16.1205 54.7512 16.0036V15.5019C54.7512 11.5772 51.4316 8.36612 47.3742 8.36612H42.2592C42.154 8.36612 42.0593 8.30417 42.0202 8.20966C41.6354 7.28053 40.8131 6.56689 39.7997 6.30749C39.687 6.2787 39.6082 6.17982 39.6082 6.06699V4.27562C40.3808 4.0136 40.9349 3.30258 40.9349 2.46592C40.9349 1.4068 40.0474 0.54834 38.9525 0.54834C37.8576 0.54834 36.9701 1.4068 36.9701 2.46592C36.9701 3.30258 37.5242 4.01389 38.2968 4.27562V6.06699C38.2968 6.18012 38.218 6.2787 38.1053 6.30749C37.0916 6.56689 36.2696 7.28082 35.8848 8.20966C35.8457 8.30417 35.751 8.36612 35.6458 8.36612H30.5308C26.4734 8.36612 23.1538 11.5772 23.1538 15.5019V16.0036C23.1538 16.1202 23.0702 16.2214 22.9527 16.2467C21.7841 16.4983 20.9102 17.5068 20.9102 18.713C20.9102 19.9193 21.7841 20.9278 22.9527 21.1794C23.0705 21.2047 23.1538 21.3056 23.1538 21.4225V21.9241C23.1538 25.8489 26.4734 29.06 30.5308 29.06H38.6314C38.724 29.06 38.8112 29.1024 38.8662 29.1743C38.9212 29.2461 38.9384 29.3389 38.9119 29.4246L36.7663 36.3459C36.7341 36.4494 36.775 36.5613 36.867 36.6224C36.959 36.6838 37.0816 36.6806 37.17 36.6143L47.2176 29.1117C47.2627 29.078 47.318 29.06 47.3748 29.06C51.4322 29.06 54.7518 25.8489 54.7518 21.9241V21.4225C54.7518 21.3059 54.8354 21.2047 54.9529 21.1794C56.1215 20.9278 56.9954 19.9193 56.9954 18.713C56.9954 17.5068 56.1215 16.4983 54.9529 16.2467H54.9523ZM51.0627 21.9241C51.0627 22.8693 50.6767 23.7632 49.9759 24.4408C49.2751 25.1187 48.3513 25.4921 47.3742 25.4921H30.5302C29.5531 25.4921 28.629 25.1187 27.9285 24.4408C27.2277 23.7629 26.8417 22.8693 26.8417 21.9241V15.5019C26.8417 14.5568 27.2277 13.6629 27.9285 12.985C28.6293 12.3071 29.5531 11.934 30.5302 11.934H47.3742C48.3513 11.934 49.2754 12.3074 49.9759 12.985C50.6767 13.6629 51.0627 14.5565 51.0627 15.5019V21.9241Z" fill="#2F80ED"/>
<path id="Vector_4" d="M41.2837 20.8582H36.6194C36.5355 20.8582 36.4555 20.8931 36.3999 20.9538C36.3443 21.0146 36.3181 21.0957 36.3283 21.1763C36.4904 22.4384 37.603 23.4152 38.9514 23.4152C40.2997 23.4152 41.4127 22.4384 41.5744 21.1763C41.5847 21.0957 41.5588 21.0146 41.5032 20.9538C41.4476 20.8931 41.3676 20.8582 41.2834 20.8582H41.2837Z" fill="#2F80ED"/>
</g>
</g>
</g>
<defs>
<filter id="filter0_bi_705_52174" x="-25" y="13" width="127.664" height="113.177" filterUnits="userSpaceOnUse" color-interpolation-filters="sRGB">
<feFlood flood-opacity="0" result="BackgroundImageFix"/>
<feGaussianBlur in="BackgroundImageFix" stdDeviation="12.5"/>
<feComposite in2="SourceAlpha" operator="in" result="effect1_backgroundBlur_705_52174"/>
<feBlend mode="normal" in="SourceGraphic" in2="effect1_backgroundBlur_705_52174" result="shape"/>
<feColorMatrix in="SourceAlpha" type="matrix" values="0 0 0 0 0 0 0 0 0 0 0 0 0 0 0 0 0 0 127 0" result="hardAlpha"/>
<feOffset dy="4"/>
<feGaussianBlur stdDeviation="20"/>
<feComposite in2="hardAlpha" operator="arithmetic" k2="-1" k3="1"/>
<feColorMatrix type="matrix" values="0 0 0 0 1 0 0 0 0 1 0 0 0 0 1 0 0 0 0.35 0"/>
<feBlend mode="normal" in2="shape" result="effect2_innerShadow_705_52174"/>
</filter>
<linearGradient id="paint0_linear_705_52174" x1="1.64265" y1="38" x2="60.4883" y2="92.6637" gradientUnits="userSpaceOnUse">
<stop stop-color="#2F80ED" stop-opacity="0.1"/>
<stop offset="0.515821" stop-color="#2F80ED" stop-opacity="0.8"/>
<stop offset="0.779545" stop-color="#2F80ED"/>
<stop offset="0.988497" stop-color="#2F80ED"/>
</linearGradient>
</defs>
</svg>
