<svg width="230" height="235" viewBox="0 0 230 235" fill="none" xmlns="http://www.w3.org/2000/svg">
<path d="M190.962 137.622C190.971 146.138 189.576 154.597 186.834 162.66C186.558 163.469 186.269 164.273 185.967 165.07C175.244 193.422 148.392 213.85 116.606 215.158C116.172 215.176 115.738 215.191 115.302 215.201C114.656 215.217 114.008 215.225 113.358 215.226C70.4987 215.226 35.7539 180.481 35.7539 137.622C35.7539 94.7625 70.4987 60.0177 113.358 60.0177C119.024 60.0144 124.674 60.6294 130.206 61.8518C132.694 62.399 135.284 62.2653 137.703 61.4648C140.121 60.6642 142.279 59.2264 143.949 57.3027C145.619 55.379 146.74 53.0405 147.193 50.5336C147.646 48.0266 147.415 45.4439 146.524 43.0572C145.516 40.3716 145.001 37.526 145.005 34.6575C145.005 21.4668 155.698 10.7734 168.889 10.7734C182.082 10.7734 192.745 21.413 192.773 34.6058C192.797 45.8866 184.999 55.3503 174.5 57.8783C172.64 58.3297 170.892 59.1546 169.36 60.3028C167.829 61.451 166.547 62.8986 165.593 64.5576L165.335 65.0045C163.763 67.7258 163.141 70.8924 163.566 74.0061C163.991 77.1197 165.439 80.0037 167.683 82.2042C182.049 96.2886 190.962 115.914 190.962 137.622Z" fill="#C8DEF4"/>
<path d="M167.738 64.4345C166.219 67.0636 165.618 70.1228 166.029 73.1309C166.44 76.139 167.839 78.9252 170.006 81.0511C183.885 94.6578 192.496 113.618 192.496 134.589C192.504 142.816 191.157 150.989 188.508 158.778C188.241 159.56 187.962 160.336 187.67 161.105C187.025 162.811 186.321 164.485 185.557 166.129C174.063 190.882 149.458 208.31 120.662 209.495C120.243 209.513 119.823 209.527 119.402 209.537C118.778 209.553 118.152 209.56 117.523 209.561C76.1183 209.561 42.5518 175.994 42.5518 134.589C42.5518 96.3182 71.2277 64.7443 108.265 60.1832C116.784 59.1353 125.419 59.5431 133.801 61.3889C134.77 61.6039 135.759 61.7125 136.751 61.7126C136.796 61.7126 136.841 61.7126 136.886 61.7114C139.084 61.6875 141.244 61.1347 143.183 60.0999C145.122 59.0651 146.784 57.5787 148.027 55.7662C149.271 53.9538 150.06 51.8686 150.327 49.6869C150.595 47.5053 150.333 45.2912 149.565 43.232C148.591 40.6373 148.094 37.8883 148.098 35.117C148.098 22.3734 158.428 12.043 171.171 12.043C174.568 12.0456 177.923 12.7978 180.996 14.2459C184.069 15.6939 186.785 17.8022 188.95 20.4204C191.114 23.0386 192.675 26.1021 193.52 29.3926C194.365 32.6831 194.473 36.1194 193.837 39.4566C192.166 48.2374 185.519 55.2551 176.941 57.463C176.825 57.493 176.709 57.522 176.592 57.5501C174.795 57.9862 173.106 58.7831 171.627 59.8924C170.147 61.0017 168.909 62.4002 167.987 64.003L167.738 64.4345Z" fill="#749DD3"/>
<g style="mix-blend-mode:multiply" opacity="0.1">
<path d="M193.838 39.4556C192.167 48.2364 185.519 55.2541 176.941 57.462C176.866 57.3847 176.791 57.307 176.715 57.2289C171.808 52.1785 165.993 45.691 165.993 45.691L167.486 39.6529L178.923 24.541L192.52 38.1379L193.838 39.4556Z" fill="#749DD3"/>
</g>
<path opacity="0.2" d="M187.671 161.105C177.312 188.495 151.371 208.231 120.663 209.494L82.4775 171.31L152.992 126.426L187.671 161.105Z" fill="#749DD3"/>
<path d="M115.492 97.5558L82.4277 125.962L83.0431 138.815C83.0431 140.348 84.8925 162.084 86.6515 162.084L117.525 141.424L145.343 159.963C147.102 159.963 150.498 139.764 150.498 138.231L152.554 125.932L119.46 97.5558C118.299 96.7496 116.653 96.7496 115.492 97.5558Z" fill="#211F44"/>
<path d="M144.521 104.873C144.521 106.642 143.122 108.075 141.397 108.075C139.671 108.075 138.273 106.642 138.273 104.873H136.547C136.547 106.642 135.148 108.075 133.423 108.075C131.698 108.075 130.299 106.642 130.299 104.873H128.573C128.573 106.642 127.174 108.075 125.449 108.075C123.724 108.075 122.325 106.642 122.325 104.873H120.599C120.599 106.642 119.2 108.075 117.475 108.075C115.75 108.075 114.351 106.642 114.351 104.873H112.625C112.625 106.642 111.227 108.075 109.501 108.075C107.776 108.075 106.377 106.642 106.377 104.873H104.651C104.651 106.642 103.253 108.075 101.527 108.075C99.802 108.075 98.4033 106.642 98.4033 104.873H96.6774C96.6774 106.642 95.2787 108.075 93.5534 108.075C91.8281 108.075 90.4294 106.642 90.4294 104.873H88.2363V167.078H146.843V104.873H144.521Z" fill="white"/>
<path d="M118.202 147.443L134.156 131.746C138.346 127.623 144.327 125.268 150.603 125.268C152.077 125.268 153.272 126.204 153.272 127.359V169.316C153.272 170.471 151.28 172.226 149.806 172.226H140.74L118.202 150.05C117.448 149.308 117.448 148.185 118.202 147.443Z" fill="#262F5F"/>
<path d="M116.847 147.414L100.893 131.716C96.7027 127.594 90.7223 125.238 84.4455 125.238C82.9714 125.238 81.7764 126.175 81.7764 127.33V169.538C81.7764 170.694 83.4873 172.225 84.9614 172.225L94.3087 172.196L116.847 150.021C117.601 149.279 117.601 148.156 116.847 147.414Z" fill="#262F5F"/>
<path d="M153.273 160.73V169.778C153.273 171.13 151.847 172.227 150.088 172.227H84.9611C83.2025 172.227 81.7764 171.13 81.7764 169.778V160.73L115.54 140.053C116.107 139.716 116.753 139.533 117.412 139.521C118.151 139.501 118.897 139.679 119.509 140.053L153.273 160.73Z" fill="#2C447D"/>
<path d="M114.848 133.616L107.399 126.168L109.847 123.72L114.848 128.721L125.426 118.143L127.874 120.59L114.848 133.616Z" fill="#211F44"/>
<path d="M178.923 24.541L177.355 44.7848L167.486 39.6533L178.923 24.541Z" fill="white"/>
<path d="M178.923 24.541L163.737 38.5507L155.205 37.7062L178.923 24.541Z" fill="white"/>
<path d="M178.923 24.541L167.486 39.6533L165.993 45.6912L163.736 38.5507L178.923 24.541Z" fill="white"/>
<path opacity="0.1" d="M178.923 24.541L167.486 39.6533L165.993 45.6912L163.736 38.5507L178.923 24.541Z" fill="#314982"/>
<path d="M165.436 49.4668C165.21 49.4291 164.978 49.4829 164.791 49.6163C164.604 49.7497 164.478 49.9518 164.44 50.1782C164.259 51.2728 163.994 52.3519 163.648 53.4061C163.576 53.6241 163.594 53.8617 163.697 54.0666C163.8 54.2716 163.981 54.427 164.199 54.4988C164.286 54.5279 164.378 54.5427 164.47 54.5426C164.652 54.5425 164.829 54.485 164.977 54.3782C165.125 54.2714 165.235 54.1208 165.292 53.9478C165.665 52.8095 165.951 51.6444 166.147 50.4626C166.185 50.2362 166.131 50.0041 165.998 49.8174C165.864 49.6307 165.662 49.5046 165.436 49.4668ZM159.681 61.8216C159.516 61.662 159.294 61.5744 159.065 61.5781C158.835 61.5818 158.617 61.6764 158.457 61.8413C157.677 62.6441 156.85 63.3995 155.98 64.1034C155.801 64.248 155.688 64.4576 155.664 64.6859C155.64 64.9143 155.708 65.1427 155.853 65.321C155.998 65.4992 156.207 65.6127 156.436 65.6365C156.664 65.6602 156.892 65.5923 157.071 65.4476C157.994 64.6997 158.873 63.8975 159.701 63.0453C159.78 62.9636 159.842 62.8672 159.884 62.7615C159.926 62.6558 159.946 62.5429 159.944 62.4293C159.942 62.3156 159.918 62.2035 159.873 62.0992C159.828 61.995 159.762 61.9006 159.681 61.8216ZM148.444 69.7682C148.399 69.6642 148.333 69.5702 148.251 69.4917C148.169 69.4132 148.072 69.3515 147.966 69.3104C147.86 69.2693 147.747 69.2494 147.633 69.2519C147.52 69.2544 147.408 69.2793 147.304 69.3251C146.302 69.7664 145.24 70.1801 144.148 70.5545C144.04 70.5912 143.941 70.6488 143.856 70.724C143.77 70.7991 143.7 70.8904 143.65 70.9926C143.6 71.0947 143.571 71.2058 143.563 71.3193C143.556 71.4329 143.572 71.5468 143.609 71.6544C143.645 71.7621 143.703 71.8614 143.779 71.9466C143.854 72.0319 143.945 72.1015 144.048 72.1514C144.15 72.2014 144.261 72.2306 144.374 72.2376C144.488 72.2445 144.602 72.2289 144.709 72.1918C145.848 71.8013 146.955 71.3697 148.002 70.9088C148.106 70.863 148.2 70.7972 148.278 70.715C148.357 70.6329 148.419 70.5361 148.46 70.4302C148.501 70.3243 148.521 70.2113 148.518 70.0977C148.515 69.9841 148.49 69.8721 148.444 69.7682ZM135.197 73.6515C135.179 73.5393 135.139 73.4318 135.079 73.3351C135.019 73.2385 134.941 73.1546 134.849 73.0882C134.756 73.0218 134.652 72.9742 134.541 72.9482C134.431 72.9222 134.316 72.9183 134.204 72.9366C133.154 73.108 132.041 73.2718 130.803 73.4386C130.586 73.4677 130.388 73.5784 130.249 73.7483C130.11 73.9181 130.04 74.1344 130.055 74.3533C130.07 74.5723 130.167 74.7775 130.327 74.9275C130.487 75.0775 130.698 75.1611 130.918 75.1613C130.956 75.1613 130.995 75.1588 131.034 75.1538C132.288 74.9853 133.416 74.8186 134.482 74.6449C134.709 74.6079 134.911 74.4825 135.045 74.2962C135.179 74.1099 135.234 73.878 135.197 73.6515ZM121.468 75.4382C121.453 75.3254 121.417 75.2166 121.361 75.1179C121.304 75.0192 121.229 74.9326 121.139 74.863C121.049 74.7934 120.947 74.7422 120.837 74.7123C120.727 74.6824 120.613 74.6744 120.5 74.6888C119.279 74.8439 118.153 74.9957 117.056 75.152C116.84 75.183 116.643 75.2949 116.505 75.4652C116.368 75.6354 116.3 75.8514 116.315 76.0697C116.331 76.288 116.428 76.4924 116.588 76.6418C116.748 76.7911 116.959 76.8743 117.178 76.8747C117.219 76.8748 117.26 76.8717 117.301 76.8655C118.389 76.7103 119.507 76.5597 120.719 76.4057C120.946 76.3767 121.153 76.2585 121.293 76.077C121.434 75.8956 121.497 75.6658 121.468 75.4382ZM107.801 77.6386C107.777 77.5276 107.731 77.4225 107.666 77.3294C107.601 77.2363 107.518 77.1569 107.422 77.0957C107.326 77.0346 107.219 76.9929 107.107 76.9731C106.996 76.9533 106.881 76.9558 106.77 76.9803C105.61 77.2364 104.467 77.5093 103.373 77.7926C103.169 77.8453 102.991 77.9705 102.873 78.1447C102.755 78.3189 102.705 78.5303 102.731 78.7391C102.757 78.948 102.859 79.1401 103.017 79.2793C103.175 79.4186 103.378 79.4955 103.589 79.4957C103.662 79.4958 103.735 79.4865 103.806 79.468C104.881 79.1905 106.004 78.9216 107.143 78.6701C107.367 78.6205 107.562 78.484 107.686 78.2906C107.809 78.0972 107.851 77.8626 107.801 77.6386ZM94.5345 81.5466C94.4911 81.4416 94.4275 81.3461 94.3472 81.2656C94.2669 81.1852 94.1716 81.1213 94.0667 81.0777C93.9617 81.0341 93.8492 81.0116 93.7355 81.0115C93.6219 81.0114 93.5093 81.0336 93.4043 81.077C92.4812 81.4584 91.565 81.8616 90.6824 82.2765C90.5208 82.352 90.3597 82.4286 90.1989 82.5061C90.0964 82.5553 90.0046 82.6243 89.9287 82.709C89.8529 82.7938 89.7945 82.8926 89.7569 83C89.7193 83.1073 89.7032 83.221 89.7096 83.3345C89.7159 83.4481 89.7446 83.5593 89.794 83.6617C89.8433 83.7642 89.9124 83.8559 89.9972 83.9317C90.082 84.0074 90.181 84.0657 90.2883 84.1032C90.3957 84.1407 90.5094 84.1567 90.6229 84.1502C90.7365 84.1437 90.8476 84.1149 90.95 84.0655C91.1058 83.9905 91.2618 83.9163 91.4179 83.8428C92.2758 83.4401 93.1666 83.0478 94.0648 82.6768C94.1699 82.6335 94.2655 82.5699 94.346 82.4897C94.4265 82.4094 94.4903 82.3141 94.534 82.2091C94.5776 82.1041 94.6001 81.9916 94.6002 81.8779C94.6003 81.7642 94.5779 81.6517 94.5345 81.5466ZM82.4133 88.1634C82.3445 88.073 82.2585 87.997 82.1602 87.9398C82.062 87.8827 81.9534 87.8455 81.8408 87.8303C81.7282 87.8152 81.6137 87.8223 81.5038 87.8515C81.394 87.8806 81.2909 87.9311 81.2006 88.0001C80.2602 88.7166 79.3435 89.4701 78.477 90.2391C78.392 90.3146 78.3226 90.406 78.273 90.5082C78.2233 90.6104 78.1942 90.7214 78.1875 90.8348C78.1807 90.9483 78.1963 91.0619 78.2335 91.1693C78.2706 91.2767 78.3286 91.3758 78.404 91.4608C78.4794 91.5458 78.5708 91.6151 78.673 91.6648C78.7753 91.7144 78.8863 91.7435 78.9997 91.7503C79.1131 91.7571 79.2268 91.7414 79.3342 91.7043C79.4416 91.6671 79.5406 91.6092 79.6256 91.5338C80.4604 90.793 81.3431 90.0672 82.25 89.3766C82.4324 89.2373 82.552 89.0312 82.5826 88.8038C82.6133 88.5763 82.5524 88.346 82.4133 88.1634ZM72.6933 97.9434C72.5022 97.8162 72.2685 97.7702 72.0435 97.8153C71.8185 97.8604 71.6206 97.993 71.4933 98.184C70.8333 99.174 70.2212 100.198 69.6743 101.227C69.6209 101.327 69.5878 101.437 69.5769 101.55C69.5659 101.663 69.5774 101.777 69.6106 101.886C69.6439 101.994 69.6982 102.095 69.7705 102.183C69.8428 102.271 69.9316 102.343 70.032 102.397C70.1322 102.45 70.242 102.483 70.3551 102.494C70.4682 102.505 70.5823 102.494 70.691 102.461C70.7996 102.427 70.9007 102.373 70.9884 102.301C71.076 102.229 71.1486 102.14 71.202 102.04C71.7229 101.061 72.305 100.087 72.9339 99.1434C73.061 98.9523 73.107 98.7186 73.0619 98.4936C73.0168 98.2686 72.8842 98.0707 72.6933 97.9434ZM67.227 110.56C67.0007 110.522 66.7687 110.576 66.5819 110.709C66.3952 110.843 66.269 111.045 66.2312 111.271C66.0333 112.446 65.9109 113.632 65.8649 114.822C65.8564 115.052 65.9393 115.275 66.0954 115.443C66.2515 115.612 66.468 115.711 66.6974 115.72C66.7083 115.72 66.7193 115.72 66.7302 115.72C66.9541 115.72 67.1692 115.633 67.3303 115.478C67.4915 115.323 67.5862 115.111 67.5945 114.887C67.6377 113.771 67.7524 112.658 67.9377 111.556C67.9756 111.33 67.922 111.098 67.7887 110.911C67.6554 110.724 67.4533 110.598 67.227 110.56ZM71.1183 127.453C70.4877 126.545 69.9351 125.586 69.4666 124.585C69.3694 124.377 69.1936 124.217 68.9779 124.138C68.7622 124.06 68.5242 124.071 68.3164 124.168C68.1085 124.265 67.9477 124.441 67.8693 124.656C67.791 124.872 67.8015 125.11 67.8985 125.318C68.4089 126.408 69.0104 127.452 69.6968 128.441C69.8278 128.629 70.0283 128.758 70.2541 128.798C70.4799 128.839 70.7126 128.788 70.9011 128.657C71.0895 128.526 71.2182 128.326 71.259 128.1C71.2997 127.874 71.2491 127.642 71.1183 127.453Z" fill="white"/>
<path d="M81.7764 156.956L111.159 141.818L111.733 142.384L81.7764 160.729V156.956Z" fill="#20284E"/>
<path d="M153.272 156.956L123.89 141.818L123.316 142.384L153.272 160.729V156.956Z" fill="#20284E"/>
<path d="M137.23 169.138C137.23 169.025 137.275 168.918 137.354 168.838C137.434 168.759 137.542 168.714 137.654 168.714V168.335C137.542 168.335 137.434 168.29 137.354 168.21C137.275 168.131 137.23 168.023 137.23 167.911C137.23 167.798 137.275 167.69 137.354 167.611C137.434 167.531 137.542 167.487 137.654 167.487V167.107C137.542 167.107 137.434 167.063 137.354 166.983C137.275 166.904 137.23 166.796 137.23 166.683C137.23 166.571 137.275 166.463 137.354 166.384C137.434 166.304 137.542 166.26 137.654 166.26V165.88C137.542 165.88 137.434 165.836 137.354 165.756C137.275 165.677 137.23 165.569 137.23 165.456C137.23 165.344 137.275 165.236 137.354 165.156C137.434 165.077 137.542 165.032 137.654 165.032V164.653C137.542 164.653 137.434 164.608 137.354 164.529C137.275 164.449 137.23 164.342 137.23 164.229C137.23 164.117 137.275 164.009 137.354 163.929C137.434 163.85 137.542 163.805 137.654 163.805V163.477H137.325C137.325 163.479 137.326 163.481 137.326 163.483C137.326 163.595 137.281 163.703 137.201 163.782C137.122 163.862 137.014 163.907 136.902 163.907C136.789 163.907 136.681 163.862 136.602 163.782C136.522 163.703 136.478 163.595 136.478 163.483C136.478 163.481 136.478 163.479 136.478 163.477H136.098C136.098 163.479 136.098 163.481 136.098 163.483C136.098 163.595 136.054 163.703 135.974 163.782C135.895 163.862 135.787 163.907 135.674 163.907C135.562 163.907 135.454 163.862 135.375 163.782C135.295 163.703 135.251 163.595 135.251 163.483C135.251 163.481 135.251 163.479 135.251 163.477H134.871C134.871 163.479 134.871 163.481 134.871 163.483C134.871 163.595 134.827 163.703 134.747 163.782C134.668 163.862 134.56 163.907 134.447 163.907C134.335 163.907 134.227 163.862 134.147 163.782C134.068 163.703 134.023 163.595 134.023 163.483C134.023 163.481 134.024 163.479 134.024 163.477H133.644C133.644 163.479 133.644 163.481 133.644 163.483C133.644 163.595 133.599 163.703 133.52 163.782C133.44 163.862 133.333 163.907 133.22 163.907C133.108 163.907 133 163.862 132.92 163.782C132.841 163.703 132.796 163.595 132.796 163.483C132.796 163.481 132.796 163.479 132.796 163.477H132.417C132.417 163.479 132.417 163.481 132.417 163.483C132.417 163.595 132.372 163.703 132.293 163.782C132.213 163.862 132.105 163.907 131.993 163.907C131.88 163.907 131.773 163.862 131.693 163.782C131.614 163.703 131.569 163.595 131.569 163.483C131.569 163.481 131.569 163.479 131.569 163.477H131.24V163.805C131.353 163.805 131.461 163.85 131.54 163.929C131.62 164.009 131.664 164.117 131.664 164.229C131.664 164.342 131.62 164.449 131.54 164.529C131.461 164.608 131.353 164.653 131.24 164.653V165.032C131.353 165.032 131.461 165.077 131.54 165.156C131.62 165.236 131.664 165.344 131.664 165.456C131.664 165.569 131.62 165.677 131.54 165.756C131.461 165.836 131.353 165.88 131.24 165.88V166.26C131.353 166.26 131.461 166.304 131.54 166.384C131.62 166.463 131.664 166.571 131.664 166.683C131.664 166.796 131.62 166.904 131.54 166.983C131.461 167.063 131.353 167.107 131.24 167.107V167.487C131.353 167.487 131.461 167.531 131.54 167.611C131.62 167.69 131.664 167.798 131.664 167.911C131.664 168.023 131.62 168.131 131.54 168.21C131.461 168.29 131.353 168.335 131.24 168.335V168.714C131.353 168.714 131.461 168.759 131.54 168.838C131.62 168.918 131.664 169.025 131.664 169.138C131.664 169.25 131.62 169.358 131.54 169.438C131.461 169.517 131.353 169.562 131.24 169.562V169.89H131.569C131.569 169.778 131.614 169.67 131.693 169.591C131.773 169.511 131.88 169.466 131.993 169.466C132.105 169.466 132.213 169.511 132.293 169.591C132.372 169.67 132.417 169.778 132.417 169.89H132.796C132.796 169.778 132.841 169.67 132.92 169.591C133 169.511 133.108 169.466 133.22 169.466C133.333 169.466 133.44 169.511 133.52 169.591C133.599 169.67 133.644 169.778 133.644 169.89H134.023C134.023 169.778 134.068 169.67 134.147 169.591C134.227 169.511 134.335 169.466 134.447 169.466C134.56 169.466 134.668 169.511 134.747 169.591C134.827 169.67 134.871 169.778 134.871 169.89H135.251C135.251 169.778 135.295 169.67 135.375 169.591C135.454 169.511 135.562 169.466 135.674 169.466C135.787 169.466 135.895 169.511 135.974 169.591C136.054 169.67 136.098 169.778 136.098 169.89H136.478C136.478 169.778 136.522 169.67 136.602 169.591C136.681 169.511 136.789 169.466 136.902 169.466C137.014 169.466 137.122 169.511 137.201 169.591C137.281 169.67 137.326 169.778 137.326 169.89H137.654V169.562C137.542 169.562 137.434 169.517 137.354 169.438C137.275 169.358 137.23 169.25 137.23 169.138ZM146.906 169.138C146.906 169.025 146.951 168.918 147.03 168.838C147.11 168.759 147.218 168.714 147.33 168.714V168.335C147.218 168.335 147.11 168.29 147.03 168.21C146.951 168.131 146.906 168.023 146.906 167.911C146.906 167.798 146.951 167.69 147.03 167.611C147.11 167.531 147.218 167.487 147.33 167.487V167.107C147.218 167.107 147.11 167.063 147.03 166.983C146.951 166.904 146.906 166.796 146.906 166.683C146.906 166.571 146.951 166.463 147.03 166.384C147.11 166.304 147.218 166.26 147.33 166.26V165.88C147.218 165.88 147.11 165.836 147.03 165.756C146.951 165.677 146.906 165.569 146.906 165.456C146.906 165.344 146.951 165.236 147.03 165.156C147.11 165.077 147.218 165.032 147.33 165.032V164.653C147.218 164.653 147.11 164.608 147.03 164.529C146.951 164.449 146.906 164.342 146.906 164.229C146.906 164.117 146.951 164.009 147.03 163.929C147.11 163.85 147.218 163.805 147.33 163.805V163.477H147.001C147.001 163.479 147.002 163.481 147.002 163.483C147.002 163.595 146.957 163.703 146.877 163.782C146.798 163.862 146.69 163.907 146.578 163.907C146.465 163.907 146.357 163.862 146.278 163.782C146.198 163.703 146.154 163.595 146.154 163.483C146.154 163.481 146.154 163.479 146.154 163.477H145.774C145.774 163.479 145.774 163.481 145.774 163.483C145.774 163.595 145.73 163.703 145.65 163.782C145.571 163.862 145.463 163.907 145.35 163.907C145.238 163.907 145.13 163.862 145.051 163.782C144.971 163.703 144.927 163.595 144.927 163.483C144.927 163.481 144.927 163.479 144.927 163.477H144.547C144.547 163.479 144.547 163.481 144.547 163.483C144.547 163.595 144.503 163.703 144.423 163.782C144.344 163.862 144.236 163.907 144.123 163.907C144.011 163.907 143.903 163.862 143.823 163.782C143.744 163.703 143.699 163.595 143.699 163.483C143.699 163.481 143.7 163.479 143.7 163.477H143.32C143.32 163.479 143.32 163.481 143.32 163.483C143.32 163.595 143.275 163.703 143.196 163.782C143.116 163.862 143.008 163.907 142.896 163.907C142.784 163.907 142.676 163.862 142.596 163.782C142.517 163.703 142.472 163.595 142.472 163.483C142.472 163.481 142.472 163.479 142.472 163.477H142.092C142.093 163.479 142.093 163.481 142.093 163.483C142.093 163.595 142.048 163.703 141.969 163.782C141.889 163.862 141.781 163.907 141.669 163.907C141.556 163.907 141.449 163.862 141.369 163.782C141.29 163.703 141.245 163.595 141.245 163.483C141.245 163.481 141.245 163.479 141.245 163.477H140.916V163.805C141.029 163.805 141.137 163.85 141.216 163.929C141.296 164.009 141.34 164.117 141.34 164.229C141.34 164.342 141.296 164.449 141.216 164.529C141.137 164.608 141.029 164.653 140.916 164.653V165.032C141.029 165.032 141.137 165.077 141.216 165.156C141.296 165.236 141.34 165.344 141.34 165.456C141.34 165.569 141.296 165.677 141.216 165.756C141.137 165.836 141.029 165.88 140.916 165.88V166.26C141.029 166.26 141.137 166.304 141.216 166.384C141.296 166.463 141.34 166.571 141.34 166.683C141.34 166.796 141.296 166.904 141.216 166.983C141.137 167.063 141.029 167.107 140.916 167.107V167.487C141.029 167.487 141.137 167.531 141.216 167.611C141.296 167.69 141.34 167.798 141.34 167.911C141.34 168.023 141.296 168.131 141.216 168.21C141.137 168.29 141.029 168.335 140.916 168.335V168.714C141.029 168.714 141.137 168.759 141.216 168.838C141.296 168.918 141.34 169.025 141.34 169.138C141.34 169.25 141.296 169.358 141.216 169.438C141.137 169.517 141.029 169.562 140.916 169.562V169.89H141.245C141.245 169.778 141.29 169.67 141.369 169.591C141.449 169.511 141.556 169.466 141.669 169.466C141.781 169.466 141.889 169.511 141.969 169.591C142.048 169.67 142.093 169.778 142.093 169.89H142.472C142.472 169.778 142.517 169.67 142.596 169.591C142.676 169.511 142.784 169.466 142.896 169.466C143.008 169.466 143.116 169.511 143.196 169.591C143.275 169.67 143.32 169.778 143.32 169.89H143.699C143.699 169.778 143.744 169.67 143.823 169.591C143.903 169.511 144.011 169.466 144.123 169.466C144.236 169.466 144.344 169.511 144.423 169.591C144.503 169.67 144.547 169.778 144.547 169.89H144.927C144.927 169.778 144.971 169.67 145.051 169.591C145.13 169.511 145.238 169.466 145.35 169.466C145.463 169.466 145.571 169.511 145.65 169.591C145.73 169.67 145.774 169.778 145.774 169.89H146.154C146.154 169.835 146.165 169.78 146.186 169.728C146.207 169.677 146.239 169.63 146.278 169.591C146.317 169.551 146.364 169.52 146.415 169.499C146.467 169.477 146.522 169.466 146.578 169.466C146.633 169.466 146.688 169.477 146.74 169.499C146.791 169.52 146.838 169.551 146.877 169.591C146.917 169.63 146.948 169.677 146.969 169.728C146.991 169.78 147.002 169.835 147.002 169.89H147.33V169.562C147.218 169.562 147.11 169.517 147.03 169.438C146.951 169.358 146.906 169.25 146.906 169.138Z" fill="white"/>
</svg>
