<svg width="24" height="24" viewBox="0 0 24 24" fill="none" xmlns="http://www.w3.org/2000/svg">
<path d="M5.58543 14.3291C5.3745 14.2236 5.12547 14.2236 4.91454 14.3291C4.91454 14.3291 1.86803 15.862 1.84399 15.8777L5.24998 17.5807L8.65598 15.8777C8.63194 15.862 5.58543 14.3291 5.58543 14.3291Z" fill="white"/>
<path d="M1.5 20.2496C1.5 20.5338 1.6604 20.7935 1.91455 20.9205L4.875 22.4996V18.2314L1.5 16.5439V20.2496Z" fill="white"/>
<path d="M5.625 22.4996L8.58545 20.9205C8.8396 20.7935 9 20.5338 9 20.2496V16.5439L5.625 18.2314V22.4996Z" fill="white"/>
<path d="M19.0854 14.3291C18.8745 14.2236 18.6255 14.2236 18.4145 14.3291C18.4145 14.3291 15.368 15.862 15.344 15.8777L18.75 17.5807L22.156 15.8777C22.1319 15.862 19.0854 14.3291 19.0854 14.3291Z" fill="white"/>
<path d="M15 20.2496C15 20.5338 15.1604 20.7935 15.4146 20.9205L18.375 22.4996V18.2314L15 16.5439V20.2496Z" fill="white"/>
<path d="M19.125 18.2314V22.4996L22.0854 20.9205C22.3396 20.7935 22.5 20.5338 22.5 20.2496V16.5439L19.125 18.2314Z" fill="white"/>
<path d="M12.375 12.7498L16.7952 10.439C17.0713 10.3211 17.25 10.0497 17.25 9.74977V4.49995C17.25 4.49794 17.2491 4.49615 17.2491 4.49414L12.375 6.99376V12.7498Z" fill="white"/>
<path d="M16.8555 3.84824C16.8345 3.83675 12.2952 1.56097 12.2952 1.56097C12.1077 1.47968 11.8924 1.47968 11.7049 1.56097C11.7049 1.56097 7.16554 3.83675 7.14453 3.84824L12 6.33966L16.8555 3.84824Z" fill="white"/>
<path d="M7.20483 10.439L11.625 12.7498V6.99376L6.75087 4.49414C6.75087 4.49615 6.75 4.49794 6.75 4.49995V9.74977C6.75 10.0497 6.92871 10.3211 7.20483 10.439Z" fill="white"/>
<path d="M10 19L12 17.5M12 17.5V14M12 17.5L14 19" stroke="white"/>
</svg>
