<svg width="18" height="22" viewBox="0 0 18 22" fill="none" xmlns="http://www.w3.org/2000/svg">
<g id="Bin_x2F_delete_layer_1_">
<path id="Vector" d="M17.4746 4.39062C16.5385 4.39062 15.7797 5.14948 15.7797 6.08554V19.3059C15.7797 20.2419 15.0208 21.0008 14.0847 21.0008H3.91526C2.9792 21.0008 2.22034 20.2419 2.22034 19.3059V6.08554C2.22034 5.14948 1.46148 4.39062 0.525425 4.39062" stroke="white" stroke-miterlimit="10" stroke-linecap="round" stroke-linejoin="round"/>
<path id="Vector_2" d="M0.525425 4.39062H17.4746" stroke="white" stroke-miterlimit="10" stroke-linecap="round" stroke-linejoin="round"/>
<path id="Vector_3" d="M5.61039 7.78125V17.6118" stroke="white" stroke-miterlimit="10" stroke-linecap="round" stroke-linejoin="round"/>
<path id="Vector_4" d="M9.00003 7.78125V17.6118" stroke="white" stroke-miterlimit="10" stroke-linecap="round" stroke-linejoin="round"/>
<path id="Vector_5" d="M12.3897 7.78125V17.6118" stroke="white" stroke-miterlimit="10" stroke-linecap="round" stroke-linejoin="round"/>
<path id="Vector_6" d="M12.3898 4.38983H5.61017V2.69492C5.61017 1.75886 6.36903 1 7.30509 1H10.6949C11.631 1 12.3898 1.75886 12.3898 2.69492V4.38983Z" stroke="white" stroke-miterlimit="10" stroke-linecap="round" stroke-linejoin="round"/>
</g>
</svg>
