<svg width="96" height="19" viewBox="0 0 96 19" fill="none" xmlns="http://www.w3.org/2000/svg">
<g id="Group 47">
<path id="Vector" d="M16.8814 0L13.8145 5.56833H30.5301C31.3754 5.56833 31.3649 5.99368 30.9516 6.74572C30.5322 7.5062 29.8303 8.82152 29.4024 9.59605C29.1852 9.98749 28.7932 10.7001 30.0916 10.7001H36.9276L38.9533 7.02171C40.2096 4.7431 39.0629 0.00285529 34.5709 0.00285529L16.8814 0Z" fill="#D80613"/>
<path id="Vector_2" d="M12.5736 18.1415L18.735 6.95411H26.3804C27.2256 6.95411 27.2151 7.3822 26.8019 8.13138L25.2421 10.9705C25.025 11.3621 24.6329 12.0746 25.9314 12.0746H36.1715C35.3221 13.635 32.5565 18.1415 27.5987 18.1415H12.5736ZM47.8556 12.0717L44.5146 18.1415H35.7015L39.0425 12.0717H47.8556ZM61.3546 10.6973H39.8013L45.695 0H54.504L51.1271 6.13447H55.0583L58.4394 0H67.2483L61.3546 10.6973ZM60.5978 12.0717L57.2569 18.1415H48.4479L51.7889 12.0717H60.5978ZM0 14.4659H12.9805L12.2722 15.753H0V14.4659ZM0 12.0717H14.3L13.5896 13.359H0V12.0717ZM0 16.86H11.663L10.9568 18.1415H0V16.86ZM96 15.753H83.0663L83.7766 14.4659H96V15.753ZM96 18.1415H81.7527L82.4564 16.86H96V18.1415ZM85.0934 12.0717H96V13.3618H84.3857L85.0934 12.0717ZM79.4488 0L73.5551 10.6973H64.2192L70.1171 0H79.4488ZM63.4646 12.0717C63.4646 12.0717 62.8217 13.2491 62.5076 13.8124C61.403 15.8122 62.379 18.1387 65.9899 18.1387H80.1381L83.4792 12.0717H63.4646Z" fill="#D80613"/>
</g>
</svg>
