<svg viewBox="0 0 32 32" fill="none" xmlns="http://www.w3.org/2000/svg">
<g id="discord 1" clip-path="url(#clip0_86_13923)">
<g id="Group">
<path id="Vector" d="M27.0893 5.82659C25.0497 4.89078 22.8626 4.20128 20.5758 3.80634C20.5342 3.79872 20.4925 3.81778 20.4711 3.85584C20.1898 4.35616 19.8782 5.00878 19.6601 5.52178C17.2005 5.15353 14.7535 5.15353 12.3444 5.52178C12.1261 4.99741 11.8032 4.35616 11.5207 3.85584C11.4992 3.81903 11.4576 3.79997 11.416 3.80634C9.13049 4.19997 6.94336 4.88947 4.90249 5.82659C4.8848 5.83422 4.86968 5.84691 4.85961 5.86341C0.711112 12.0612 -0.425388 18.1067 0.132113 24.0772C0.134613 24.1064 0.15105 24.1343 0.173738 24.1521C2.9108 26.1622 5.56217 27.3824 8.16424 28.1913C8.20586 28.204 8.24999 28.1888 8.27649 28.1545C8.89199 27.3139 9.44067 26.4276 9.91111 25.4955C9.93886 25.441 9.91236 25.3762 9.85561 25.3546C8.9853 25.0245 8.15661 24.6219 7.35943 24.1648C7.29636 24.128 7.2913 24.0378 7.34936 23.9947C7.51711 23.869 7.68493 23.7382 7.84511 23.6061C7.87411 23.582 7.91449 23.5769 7.94855 23.5921C13.1856 25.9832 18.8552 25.9832 24.0304 23.5921C24.0645 23.5756 24.1049 23.5807 24.1351 23.6048C24.2954 23.7368 24.4631 23.8689 24.6321 23.9946C24.6901 24.0378 24.6863 24.128 24.6233 24.1648C23.8261 24.6308 22.9974 25.0244 22.1259 25.3533C22.0691 25.3748 22.0439 25.4409 22.0717 25.4955C22.5522 26.4262 23.1009 27.3125 23.7051 28.1532C23.7303 28.1887 23.7757 28.204 23.8173 28.1912C26.432 27.3824 29.0834 26.1621 31.8204 24.152C31.8444 24.1343 31.8596 24.1076 31.8621 24.0784C32.5293 17.1758 30.7445 11.1799 27.1308 5.86459C27.122 5.84691 27.1069 5.83422 27.0893 5.82659ZM10.6933 20.4418C9.11661 20.4418 7.81743 18.9943 7.81743 17.2165C7.81743 15.4388 9.09136 13.9913 10.6933 13.9913C12.3077 13.9913 13.5944 15.4515 13.5691 17.2165C13.5691 18.9943 12.2951 20.4418 10.6933 20.4418ZM21.3262 20.4418C19.7496 20.4418 18.4504 18.9943 18.4504 17.2165C18.4504 15.4388 19.7244 13.9913 21.3262 13.9913C22.9407 13.9913 24.2273 15.4515 24.2021 17.2165C24.2021 18.9943 22.9408 20.4418 21.3262 20.4418Z" fill="white"/>
</g>
</g>
<defs>
<clipPath id="clip0_86_13923">
<rect width="32" height="32" fill="white"/>
</clipPath>
</defs>
</svg>
