<svg width="24" height="24" viewBox="0 0 24 24" fill="none" xmlns="http://www.w3.org/2000/svg">
    <path fill-rule="evenodd" clip-rule="evenodd" d="M6.273 5.554C5.749 5.047 6.011 4.031 6.797 3.65C7.583 3.143 9.025 3.777 9.025 3.777C9.025 3.777 9.549 2.889 10.729 2.889C12.302 2.889 12.825 3.65 12.825 3.65C12.825 3.65 13.481 2 15.315 2C17.282 2 17.675 3.396 17.675 3.396C17.675 3.396 18.068 2.635 19.378 2.762C20.82 2.888 20.558 4.158 20.558 4.158C20.558 4.158 22 4.031 22 5.174C22 6.062 20.69 6.062 20.69 6.062C20.69 6.062 21.214 6.951 19.772 7.459C17.806 8.221 17.282 6.951 17.282 6.951C17.282 6.951 16.496 8.22 14.267 7.966C12.302 7.713 12.039 6.189 12.039 6.189C12.039 6.189 10.599 6.951 9.549 6.062C7.977 4.793 6.929 4.412 6.273 5.554ZM17 16.258V17.2L20.54 15.37C20.6924 15.291 20.8626 15.2526 21.0342 15.2585C21.2058 15.2644 21.373 15.3143 21.5196 15.4035C21.6663 15.4928 21.7876 15.6182 21.8717 15.7679C21.9558 15.9175 22 16.0863 22 16.258V22H2V14.615H5L5.75 6H8.25L9 14.615H12V17.2L15.54 15.37C15.6924 15.291 15.8626 15.2526 16.0342 15.2585C16.2058 15.2644 16.373 15.3143 16.5196 15.4035C16.6663 15.4928 16.7876 15.6182 16.8717 15.7679C16.9558 15.9175 17 16.0863 17 16.258ZM4.5 19.538H9.5V17.077H4.5V19.538Z" fill="#A6A4A3"/>
    </svg>
    