<svg width="90" height="27" viewBox="0 0 90 27" fill="none" xmlns="http://www.w3.org/2000/svg">
<g id="Group 46">
<path id="Vector" fill-rule="evenodd" clip-rule="evenodd" d="M83.9082 22.6111C83.9082 20.7886 85.2586 19.5586 86.7902 19.5586C88.3226 19.5586 89.6704 20.7886 89.6704 22.6111C89.6704 24.4336 88.3226 25.6635 86.7902 25.6635C85.2586 25.6635 83.9082 24.4336 83.9082 22.6111ZM86.8045 22.2663C87.2959 22.2663 87.434 21.9862 87.434 21.7407C87.434 21.4459 87.2959 21.2172 86.8045 21.2172H86.1786V22.2663H86.8045ZM86.1786 22.7413V24.4167H85.672V20.7238H86.9283C87.6627 20.7238 88.0016 21.0687 88.0016 21.7407C88.0016 22.1516 87.7389 22.4809 87.4035 22.5281V22.545C87.6931 22.5942 87.8016 22.8742 87.8635 23.3829C87.9093 23.7094 87.9702 24.2851 88.0778 24.4167H87.4797C87.3416 24.0712 87.3569 23.5793 87.2493 23.1691C87.1596 22.8573 87.0054 22.7413 86.6682 22.7413H86.1786ZM89.1189 22.6111C89.1189 21.1341 88.1397 20.0512 86.7902 20.0512C85.4407 20.0512 84.4597 21.1341 84.4597 22.6111C84.4597 24.0881 85.4407 25.1703 86.7902 25.1703C88.1397 25.1703 89.1189 24.0881 89.1189 22.6111Z" fill="#F47920"/>
<path id="Vector_2" fill-rule="evenodd" clip-rule="evenodd" d="M73.9199 25.6652L70.5968 21.6755L67.3047 25.6652H60.3789L67.1489 17.5204L60.3789 9.375H67.5222L70.8761 13.3323L74.1059 9.375H81.0019L74.2623 17.4881L81.0942 25.6652H73.9199Z" fill="#F47920"/>
<path id="Vector_3" fill-rule="evenodd" clip-rule="evenodd" d="M47.0703 25.6612V0H60.3763V5.72035H52.7068V9.37104H60.3763V14.8747H52.7068V19.9254H60.3763V25.6612H47.0703Z" fill="#F47920"/>
<path id="Vector_4" fill-rule="evenodd" clip-rule="evenodd" d="M38.0495 21.7583C35.9808 21.7583 34.6948 19.6938 34.6948 17.5385C34.6948 15.2355 35.8139 13.0204 38.0495 13.0204C40.3685 13.0204 41.2917 15.2355 41.2917 17.5385C41.2917 19.7241 40.3133 21.7583 38.0495 21.7583ZM18.1068 14.9533C18.4616 13.3243 19.6418 12.2583 21.1158 12.2583C22.7389 12.2583 23.8593 13.2913 24.1543 14.9533H18.1068ZM41.4548 0V10.5035H41.3943C40.151 8.97437 38.5988 8.44243 36.7983 8.44243C33.1078 8.44243 30.3294 11.1297 29.3529 14.6796C28.2404 10.7673 25.3707 8.36928 21.1158 8.36928C17.6612 8.36928 14.9334 10.0299 13.5088 12.7368V9.37267H6.36634V5.72074H14.1607V0H0V25.6657H6.36634V14.8773H12.7123C12.523 15.6696 12.4218 16.5189 12.4218 17.4132C12.4218 22.7674 16.2418 26.5242 21.1158 26.5242C25.2156 26.5242 27.9171 24.4632 29.3451 20.7071H23.8902C23.1509 21.8358 22.5917 22.1707 21.1158 22.1707C19.4053 22.1707 17.9299 20.5727 17.9299 18.6771H29.0401C29.5218 22.9307 32.6156 26.5974 36.86 26.5974C38.6915 26.5974 40.3691 25.6327 41.3943 24.0037H41.4548V25.6657H47.068V0H41.4548Z" fill="#472F92"/>
</g>
</svg>
