<svg width="25" height="24" viewBox="0 0 25 24" fill="none" xmlns="http://www.w3.org/2000/svg">
<g clip-path="url(#clip0_968_18365)">
<path d="M12.3332 24C18.9606 24 24.3331 18.6274 24.3331 12C24.3331 5.37258 18.9606 0 12.3332 0C5.70581 0 0.333252 5.37258 0.333252 12C0.333252 18.6274 5.70581 24 12.3332 24Z" fill="white"/>
<path d="M20.7294 3.42862C18.5651 1.308 15.6017 0 12.3324 0C11.2889 0 8.23579 1.308 6.07153 3.42862H20.7294Z" fill="#6DA544"/>
<path d="M12.3325 10.284H24.21C24.0369 9.0735 23.6833 7.92131 23.177 6.85547H11.8108L12.3325 10.284Z" fill="#6DA544"/>
<path d="M1.4884 17.1435H23.1773C23.6836 16.0777 24.0372 14.9254 24.2103 13.7148H0.455322C0.628525 14.9254 0.982007 16.0777 1.4884 17.1435Z" fill="#6DA544"/>
<path d="M3.93579 20.5703C6.10014 22.6909 9.06347 23.9989 12.3328 23.9989C15.6022 23.9989 18.5655 22.6909 20.7299 20.5703H3.93579Z" fill="#6DA544"/>
<path d="M12.3328 0C6.28758 0 1.28726 4.47052 0.455322 10.2857H12.3328V0Z" fill="#D80027"/>
<path d="M6.33348 9.20123L5.81177 8.1578V6.07083L7.1161 5.02734L8.42044 6.07083V7.63603L8.94216 7.11431V8.1578L7.89868 9.20123H6.33348Z" fill="#F0F0F0"/>
<path d="M3.52679 6L3.66493 6.42516H4.11193L3.75029 6.68798L3.88847 7.11309L3.52679 6.85031L3.1651 7.11309L3.30329 6.68798L2.94165 6.42516H3.38865L3.52679 6Z" fill="#F0F0F0"/>
<path d="M4.57073 4.95703L4.70887 5.38219H5.15592L4.79423 5.64502L4.93237 6.07013L4.57073 5.80739L4.20909 6.07013L4.34728 5.64502L3.9856 5.38219H4.43255L4.57073 4.95703Z" fill="#F0F0F0"/>
<path d="M5.6137 3.91406L5.75184 4.33922H6.19879L5.8372 4.60205L5.97529 5.02716L5.6137 4.76442L5.25202 5.02716L5.39016 4.60205L5.02856 4.33922H5.47552L5.6137 3.91406Z" fill="#F0F0F0"/>
<path d="M10.7045 6L10.5663 6.42516H10.1194L10.481 6.68798L10.3428 7.11309L10.7045 6.85031L11.0662 7.11309L10.928 6.68798L11.2896 6.42516H10.8427L10.7045 6Z" fill="#F0F0F0"/>
<path d="M9.66053 4.95703L9.52239 5.38219H9.07544L9.43703 5.64502L9.29889 6.07013L9.66053 5.80739L10.0222 6.07013L9.88403 5.64502L10.2457 5.38219H9.79872L9.66053 4.95703Z" fill="#F0F0F0"/>
<path d="M8.61761 3.91406L8.47942 4.33922H8.03247L8.39406 4.60205L8.25592 5.02716L8.61761 4.76442L8.97925 5.02716L8.84111 4.60205L9.2027 4.33922H8.75575L8.61761 3.91406Z" fill="#F0F0F0"/>
<path d="M7.11566 3.39062L6.97747 3.81578H6.53052L6.89211 4.07856L6.75397 4.50367L7.11566 4.24094L7.47729 4.50367L7.33915 4.07856L7.70075 3.81578H7.2538L7.11566 3.39062Z" fill="#F0F0F0"/>
</g>
<defs>
<clipPath id="clip0_968_18365">
<rect width="24" height="24" fill="white" transform="translate(0.333252)"/>
</clipPath>
</defs>
</svg>
