<svg width="25" height="24" viewBox="0 0 25 24" fill="none" xmlns="http://www.w3.org/2000/svg">
<g clip-path="url(#clip0_827_7771)">
<path d="M23.5938 9.91355L13.8044 9.91309C13.3721 9.91309 13.0217 10.2634 13.0217 10.6957V13.823C13.0217 14.2552 13.3721 14.6056 13.8044 14.6056H19.3171C18.7135 16.1722 17.5868 17.4842 16.1493 18.3178L18.5 22.387C22.2707 20.2062 24.5 16.3799 24.5 12.0965C24.5 11.4866 24.455 11.0506 24.3651 10.5597C24.2968 10.1867 23.9729 9.91355 23.5938 9.91355Z" fill="#167EE6"/>
<path d="M12.5 19.3047C9.80218 19.3047 7.44699 17.8306 6.18207 15.6494L2.11304 17.9948C4.18374 21.5836 8.06283 24.0003 12.5 24.0003C14.6768 24.0003 16.7307 23.4143 18.5 22.3929V22.3873L16.1494 18.3181C15.0742 18.9417 13.8299 19.3047 12.5 19.3047Z" fill="#12B347"/>
<path d="M18.5 22.3922V22.3866L16.1494 18.3174C15.0741 18.941 13.83 19.304 12.5 19.304V23.9996C14.6767 23.9996 16.7308 23.4135 18.5 22.3922Z" fill="#0F993E"/>
<path d="M5.19566 12.0003C5.19566 10.6705 5.55856 9.42637 6.18205 8.3512L2.11302 6.00586C1.08603 7.76962 0.5 9.81797 0.5 12.0003C0.5 14.1826 1.08603 16.2309 2.11302 17.9947L6.18205 15.6494C5.55856 14.5742 5.19566 13.3301 5.19566 12.0003Z" fill="#FFD500"/>
<path d="M12.5 4.69566C14.2593 4.69566 15.8753 5.32078 17.1375 6.36061C17.4488 6.61711 17.9014 6.59859 18.1867 6.31336L20.4024 4.09758C20.7261 3.77395 20.703 3.24422 20.3573 2.94431C18.2425 1.10967 15.491 0 12.5 0C8.06283 0 4.18374 2.41673 2.11304 6.00558L6.18207 8.35092C7.44699 6.16969 9.80218 4.69566 12.5 4.69566Z" fill="#FF4B26"/>
<path d="M17.1374 6.36061C17.4488 6.61711 17.9015 6.59859 18.1866 6.31336L20.4024 4.09758C20.726 3.77395 20.7029 3.24422 20.3573 2.94431C18.2425 1.10963 15.491 0 12.5 0V4.69566C14.2592 4.69566 15.8752 5.32078 17.1374 6.36061Z" fill="#D93F21"/>
</g>
<defs>
<clipPath id="clip0_827_7771">
<rect width="24" height="24" fill="white" transform="translate(0.5)"/>
</clipPath>
</defs>
</svg>
