<svg viewBox="0 0 25 25" fill="none" xmlns="http://www.w3.org/2000/svg">
<g id="instagram 1" clip-path="url(#clip0_86_13927)">
<path id="Vector" d="M14.4426 12.332C14.4426 13.4969 13.4982 14.4414 12.3332 14.4414C11.1683 14.4414 10.2239 13.4969 10.2239 12.332C10.2239 11.1671 11.1683 10.2227 12.3332 10.2227C13.4982 10.2227 14.4426 11.1671 14.4426 12.332Z" fill="white"/>
<path id="Vector_2" d="M15.8957 5.96094H8.77075C7.21985 5.96094 5.95825 7.22253 5.95825 8.77344V15.8984C5.95825 17.4493 7.21985 18.7109 8.77075 18.7109H15.8957C17.4466 18.7109 18.7082 17.4493 18.7082 15.8984V8.77344C18.7082 7.22253 17.4466 5.96094 15.8957 5.96094ZM12.3332 15.8516C10.3947 15.8516 8.81762 14.2745 8.81762 12.3359C8.81762 10.3974 10.3947 8.82031 12.3332 8.82031C14.2718 8.82031 15.8489 10.3974 15.8489 12.3359C15.8489 14.2745 14.2718 15.8516 12.3332 15.8516ZM16.3645 9.00781C15.9761 9.00781 15.6614 8.69305 15.6614 8.30469C15.6614 7.91632 15.9761 7.60156 16.3645 7.60156C16.7528 7.60156 17.0676 7.91632 17.0676 8.30469C17.0676 8.69305 16.7528 9.00781 16.3645 9.00781Z" fill="white"/>
<path id="Vector_3" d="M18.0051 0.335938H6.66136C3.17211 0.335938 0.333252 3.1748 0.333252 6.66406V18.0078C0.333252 21.4971 3.17211 24.3359 6.66136 24.3359H18.0051C21.4943 24.3359 24.3332 21.4971 24.3332 18.0078V6.66406C24.3332 3.1748 21.4943 0.335938 18.0051 0.335938ZM20.1145 15.8984C20.1145 18.2246 18.2219 20.1172 15.8957 20.1172H8.77073C6.44457 20.1172 4.55199 18.2246 4.55199 15.8984V8.77344C4.55199 6.44727 6.44457 4.55469 8.77073 4.55469H15.8957C18.2219 4.55469 20.1145 6.44727 20.1145 8.77344V15.8984Z" fill="white"/>
</g>
<defs>
<clipPath id="clip0_86_13927">
<rect width="23.9999" height="24" fill="white" transform="translate(0.333496 0.335938)"/>
</clipPath>
</defs>
</svg>
