<svg width="25" height="24" viewBox="0 0 25 24" fill="none" xmlns="http://www.w3.org/2000/svg">
<g clip-path="url(#clip0_827_23229)">
<path d="M24.494 24.0002L24.5 23.9992V15.1972C24.5 10.8912 23.573 7.57422 18.539 7.57422C16.119 7.57422 14.495 8.90222 13.832 10.1612H13.762V7.97622H8.98901V23.9992H13.959V16.0652C13.959 13.9762 14.355 11.9562 16.942 11.9562C19.491 11.9562 19.529 14.3402 19.529 16.1992V24.0002H24.494Z" fill="#0077B5"/>
<path d="M0.895996 7.97656H5.872V23.9996H0.895996V7.97656Z" fill="#0077B5"/>
<path d="M3.382 0C1.791 0 0.5 1.291 0.5 2.882C0.5 4.473 1.791 5.791 3.382 5.791C4.973 5.791 6.264 4.473 6.264 2.882C6.263 1.291 4.972 0 3.382 0Z" fill="#0077B5"/>
</g>
<defs>
<clipPath id="clip0_827_23229">
<rect width="24" height="24" fill="white" transform="translate(0.5)"/>
</clipPath>
</defs>
</svg>
