<svg width="24" height="24" viewBox="0 0 24 24" fill="none" xmlns="http://www.w3.org/2000/svg">
<path d="M12 1C8.56252 1 5.81251 3.75 5.81251 7.1875V9.9375C4.64375 9.9375 3.75 10.8313 3.75 12V20.9375C3.75 22.1063 4.64375 23 5.81251 23H18.1876C19.3563 23 20.2501 22.1063 20.2501 20.9375V12C20.2501 10.8313 19.3563 9.9375 18.1876 9.9375V7.1875C18.1876 3.75 15.4375 1 12 1ZM18.8751 12V20.9375C18.8751 21.35 18.6001 21.625 18.1876 21.625H5.81251C5.40001 21.625 5.125 21.35 5.125 20.9375V12C5.125 11.5875 5.40001 11.3125 5.81251 11.3125H6.50001H17.5H18.1876C18.6001 11.3125 18.8751 11.5875 18.8751 12ZM7.18751 9.9375V7.1875C7.18751 4.50625 9.31877 2.375 12 2.375C14.6813 2.375 16.8125 4.50625 16.8125 7.1875V9.9375H7.18751Z" fill="white"/>
<path d="M12 13.375C10.8313 13.375 9.9375 14.2687 9.9375 15.4375C9.9375 16.3312 10.4875 17.0875 11.3125 17.3625V18.875C11.3125 19.2875 11.5875 19.5625 12 19.5625C12.4125 19.5625 12.6875 19.2875 12.6875 18.875V17.3625C13.5125 17.0875 14.0625 16.3312 14.0625 15.4375C14.0625 14.2687 13.1688 13.375 12 13.375ZM12 16.125C11.5875 16.125 11.3125 15.85 11.3125 15.4375C11.3125 15.025 11.5875 14.75 12 14.75C12.4125 14.75 12.6875 15.025 12.6875 15.4375C12.6875 15.85 12.4125 16.125 12 16.125Z" fill="white"/>
</svg>
