<svg width="24" height="24" viewBox="0 0 24 24" fill="none" xmlns="http://www.w3.org/2000/svg">
    <g id="Icon">
    <path id="Vector" d="M21.4636 6.25636C21.4636 6.00263 21.3103 5.77401 21.0757 5.67757L12.2379 2.04693C12.0855 1.98436 11.9147 1.98436 11.7623 2.04693L2.92457 5.67757C2.68988 5.77397 2.53662 6.00263 2.53662 6.25636V17.7436C2.53662 17.9974 2.68984 18.226 2.92457 18.3224L11.7623 21.9531C11.9131 22.015 12.0825 22.0163 12.2371 21.953C12.2446 21.9505 11.91 22.0878 21.0757 18.3224C21.3104 18.226 21.4636 17.9974 21.4636 17.7436V6.25636ZM12.0001 9.26316L8.74373 7.92542L15.7811 4.85546L19.2553 6.28268L12.0001 9.26316ZM3.78805 7.24249L6.59756 8.39666V11.6529C6.59756 11.9984 6.87772 12.2786 7.22327 12.2786C7.56883 12.2786 7.84899 11.9984 7.84899 11.6529V8.91076L11.3744 10.359V20.4408L3.78805 17.3242V7.24249ZM12.0001 3.30215L14.1692 4.19325L7.13184 7.26321L4.74493 6.28264L12.0001 3.30215ZM12.6258 10.359L20.2122 7.24249V17.3242L12.6258 20.4408V10.359Z" fill="black"/>
    </g>
    </svg>
    