<svg xmlns="http://www.w3.org/2000/svg" width="65" height="65" viewBox="0 0 65 65" fill="none">
  <g opacity="0.3" filter="url(#filter0_b_95_2518)">
    <circle cx="32.5" cy="32.5" r="31.5" fill="url(#paint0_linear_95_2518)" fill-opacity="0.2"/>
    <circle cx="32.5" cy="32.5" r="32" stroke="url(#paint1_linear_95_2518)"/>
  </g>
  <g filter="url(#filter1_b_95_2518)">
    <circle cx="32.5" cy="32.5" r="25.5" fill="url(#paint2_linear_95_2518)" fill-opacity="0.2"/>
    <circle cx="32.5" cy="32.5" r="26" stroke="url(#paint3_linear_95_2518)"/>
  </g>
  <path d="M52.3337 32.5001C52.3337 37.7602 50.2441 42.8049 46.5246 46.5244C42.8051 50.2438 37.7605 52.3334 32.5003 52.3334C27.2402 52.3334 22.1955 50.2438 18.476 46.5244C14.7566 42.8049 12.667 37.7602 12.667 32.5001C12.667 27.24 14.7566 22.1953 18.476 18.4758C22.1955 14.7563 27.2402 12.6667 32.5003 12.6667C37.7605 12.6667 42.8051 14.7563 46.5246 18.4758C50.2441 22.1953 52.3337 27.24 52.3337 32.5001ZM29.5005 25.2931C29.3152 25.1612 29.0971 25.0828 28.8701 25.0665C28.6432 25.0503 28.4161 25.0968 28.2139 25.201C28.0116 25.3052 27.8419 25.4631 27.7234 25.6573C27.6049 25.8515 27.5421 26.0746 27.542 26.3022V38.698C27.5421 38.9255 27.6049 39.1486 27.7234 39.3429C27.8419 39.5371 28.0116 39.695 28.2139 39.7992C28.4161 39.9034 28.6432 39.9499 28.8701 39.9336C29.0971 39.9174 29.3152 39.839 29.5005 39.707L38.1776 33.5091C38.3383 33.3944 38.4693 33.243 38.5597 33.0675C38.65 32.892 38.6972 32.6975 38.6972 32.5001C38.6972 32.3027 38.65 32.1081 38.5597 31.9326C38.4693 31.7571 38.3383 31.6057 38.1776 31.4911L29.5005 25.2931Z" fill="url(#paint4_linear_95_2518)"/>
  <defs>
    <filter id="filter0_b_95_2518" x="-10" y="-10" width="85" height="85" filterUnits="userSpaceOnUse" color-interpolation-filters="sRGB">
      <feFlood flood-opacity="0" result="BackgroundImageFix"/>
      <feGaussianBlur in="BackgroundImageFix" stdDeviation="5"/>
      <feComposite in2="SourceAlpha" operator="in" result="effect1_backgroundBlur_95_2518"/>
      <feBlend mode="normal" in="SourceGraphic" in2="effect1_backgroundBlur_95_2518" result="shape"/>
    </filter>
    <filter id="filter1_b_95_2518" x="-4" y="-4" width="73" height="73" filterUnits="userSpaceOnUse" color-interpolation-filters="sRGB">
      <feFlood flood-opacity="0" result="BackgroundImageFix"/>
      <feGaussianBlur in="BackgroundImageFix" stdDeviation="5"/>
      <feComposite in2="SourceAlpha" operator="in" result="effect1_backgroundBlur_95_2518"/>
      <feBlend mode="normal" in="SourceGraphic" in2="effect1_backgroundBlur_95_2518" result="shape"/>
    </filter>
    <linearGradient id="paint0_linear_95_2518" x1="-1.88192" y1="-4.0266" x2="67.4851" y2="75.3266" gradientUnits="userSpaceOnUse">
      <stop stop-color="white" stop-opacity="0.67"/>
      <stop offset="1" stop-color="white" stop-opacity="0.21"/>
    </linearGradient>
    <linearGradient id="paint1_linear_95_2518" x1="-10.0571" y1="-19.475" x2="81.6123" y2="95.3468" gradientUnits="userSpaceOnUse">
      <stop stop-color="#69EACB"/>
      <stop offset="1" stop-color="#6654F1"/>
    </linearGradient>
    <linearGradient id="paint2_linear_95_2518" x1="4.66702" y1="2.93085" x2="60.8213" y2="67.1691" gradientUnits="userSpaceOnUse">
      <stop stop-color="white" stop-opacity="0.67"/>
      <stop offset="1" stop-color="white" stop-opacity="0.21"/>
    </linearGradient>
    <linearGradient id="paint3_linear_95_2518" x1="-1.95102" y1="-9.575" x2="72.2576" y2="83.3759" gradientUnits="userSpaceOnUse">
      <stop stop-color="#69EACB"/>
      <stop offset="1" stop-color="#6654F1"/>
    </linearGradient>
    <linearGradient id="paint4_linear_95_2518" x1="11.5183" y1="36.4667" x2="45.9536" y2="60.266" gradientUnits="userSpaceOnUse">
      <stop stop-color="#69EACB"/>
      <stop offset="1" stop-color="#6654F1"/>
    </linearGradient>
  </defs>
</svg>