<svg width="16" height="22" viewBox="0 0 16 22" fill="none" xmlns="http://www.w3.org/2000/svg">
<g id="g4762">
<g id="g4768">
<path id="path4770" d="M0.578125 4.5123C0.578125 6.28145 2.02453 7.72949 3.79297 7.72949H4.18031H5.50723H12.2059C13.9743 7.72949 15.4219 6.28145 15.4219 4.5123" stroke="white" stroke-width="0.8" stroke-miterlimit="10" stroke-linecap="round" stroke-linejoin="round"/>
</g>
<g id="g4772">
<path id="path4774" d="M7.11743 11.543V5.03766" stroke="white" stroke-width="0.8" stroke-miterlimit="10" stroke-linecap="round" stroke-linejoin="round"/>
</g>
<g id="g4776">
<path id="path4778" d="M8.99988 11.543V5.03766" stroke="white" stroke-width="0.8" stroke-miterlimit="10" stroke-linecap="round" stroke-linejoin="round"/>
</g>
<g id="g4780">
<path id="path4782" d="M8.62371 1.29629H14.7181C15.1044 1.29629 15.422 1.61289 15.422 2.00039V20.0029C15.422 20.3904 15.1044 20.707 14.7181 20.707H1.28208C0.894732 20.707 0.578247 20.3904 0.578247 20.0029V2.00039C0.578247 1.61289 0.894732 1.29629 1.28208 1.29629L7.26805 1.29297" stroke="white" stroke-width="0.8" stroke-miterlimit="10" stroke-linecap="round" stroke-linejoin="round"/>
</g>
<g id="g4784">
<path id="path4786" d="M8.05919 5.97852C8.57712 5.97852 8.99985 5.55559 8.99985 5.03746C8.99985 4.51824 8.57712 4.09531 8.05919 4.09531C7.54017 4.09531 7.11743 4.51824 7.11743 5.03746C7.11743 5.55559 7.54017 5.97852 8.05919 5.97852Z" stroke="white" stroke-width="0.8" stroke-miterlimit="10" stroke-linecap="round" stroke-linejoin="round"/>
</g>
<g id="g4788">
<path id="path4790" d="M8.05919 12.4844C8.57712 12.4844 8.99985 12.0615 8.99985 11.5423C8.99985 11.0241 8.57712 10.6012 8.05919 10.6012C7.54017 10.6012 7.11743 11.0241 7.11743 11.5423C7.11743 12.0615 7.54017 12.4844 8.05919 12.4844Z" stroke="white" stroke-width="0.8" stroke-miterlimit="10" stroke-linecap="round" stroke-linejoin="round"/>
</g>
<g id="g4792">
<path id="path4794" d="M4.59198 16.9287H2.66858" stroke="white" stroke-width="0.8" stroke-miterlimit="10" stroke-linecap="round" stroke-linejoin="round"/>
</g>
<g id="g4796">
<path id="path4798" d="M4.59198 18.6943H2.66858" stroke="white" stroke-width="0.8" stroke-miterlimit="10" stroke-linecap="round" stroke-linejoin="round"/>
</g>
</g>
</svg>
