<svg width="24" height="24" viewBox="0 0 24 24" fill="none" xmlns="http://www.w3.org/2000/svg">
<path d="M20 20.095C18.61 20.095 17.22 19.648 16 18.829C14.818 19.6252 13.4252 20.0505 12 20.0505C10.5748 20.0505 9.18205 19.6252 8 18.829C6.78 19.648 5.39 20.095 4 20.095H2V22H4C5.37 22 6.74 21.667 8 21.048C9.24493 21.6589 10.6133 21.9765 12 21.9765C13.3867 21.9765 14.7551 21.6589 16 21.048C17.26 21.667 18.62 22 20 22H22V20.095H20ZM20 4.857V3.905C19.9995 3.77864 19.9733 3.65371 19.9229 3.53783C19.8725 3.42195 19.7991 3.31755 19.707 3.231C19.5157 3.05092 19.2627 2.95106 19 2.952H9V2H6V2.952H5V4.857H6V13.429H5V11.524H3V13.429H2V15.333H3V19.143H4C4.33 19.143 4.67 19.114 5 19.067V15.333H10V18.809C10.65 19 11.33 19.095 12 19.095V15.333H13V13.43H12V11.525H10V13.43H9V4.857H17V9.257C16.53 9.419 16.19 9.838 16.19 10.343C16.19 10.762 16.43 11.143 16.8 11.353V12.476H17.42C17.4988 12.4747 17.5771 12.4889 17.6504 12.5178C17.7237 12.5468 17.7906 12.5899 17.8472 12.6446C17.9039 12.6994 17.9492 12.7648 17.9805 12.8371C18.0119 12.9094 18.0287 12.9872 18.03 13.066C18.0288 13.1449 18.0121 13.2228 17.9808 13.2952C17.9495 13.3676 17.9042 13.4331 17.8476 13.488C17.7909 13.5429 17.724 13.5861 17.6506 13.6151C17.5772 13.6441 17.4989 13.6583 17.42 13.657C17.3126 13.6563 17.2071 13.6289 17.1129 13.5774C17.0187 13.526 16.9386 13.4519 16.88 13.362C16.8395 13.2947 16.7858 13.2362 16.7223 13.19C16.6587 13.1438 16.5865 13.1108 16.51 13.093C16.3546 13.0544 16.1903 13.0758 16.05 13.153C15.75 13.305 15.65 13.667 15.82 13.953C16.15 14.486 16.76 14.829 17.42 14.829C18.43 14.829 19.26 14.039 19.26 13.067C19.26 12.324 18.76 11.657 18.03 11.409V11.352C18.41 11.142 18.65 10.762 18.65 10.342C18.65 9.905 18.38 9.533 18 9.333V4.857H20ZM8 12.152L7 13.105V11.752L8 10.8V12.152ZM8 9.342L7 10.295V8.943L8 7.99V9.343V9.342ZM7 7.439V6.086L8 5.133V6.486L7 7.439Z" fill="white"/>
</svg>
