<svg width="116" height="20" viewBox="0 0 116 20" fill="none" xmlns="http://www.w3.org/2000/svg">
<g id="Brand logo" clip-path="url(#clip0_1079_3196)">
<g id="Group 49">
<path id="Vector" d="M4.54857 0L0.401367 19.3699H27.4503L31.5975 0H4.54857Z" fill="white"/>
<path id="Vector_2" d="M5.10126 0.779276C5.10126 0.779276 20.1695 3.85454 20.4459 3.90052C23.9019 4.49716 23.8098 5.18568 23.8098 5.18568C26.252 5.18568 26.5285 5.27745 26.9432 5.64465C28.2335 6.70036 26.1599 9.82161 26.1599 9.82161C25.8373 10.0511 3.44238 18.6345 3.44238 18.6345H26.8511L30.6757 0.6875H5.05518L5.10126 0.779276Z" fill="#333366"/>
<path id="Vector_3" d="M22.613 6.60741C22.2905 6.79106 21.3689 6.88284 20.9541 6.88284C20.5394 6.92872 20.4473 6.97471 20.4473 7.11237C20.4473 7.25004 20.4933 7.34191 21.0924 7.34191C22.4287 7.34191 24.7788 6.83695 25.47 7.06648C25.8386 7.20415 25.5621 7.84677 25.2396 8.71884C25.1013 9.04015 25.3778 9.04015 25.47 8.90248C25.6082 8.76472 26.2073 7.61724 26.2994 7.06648C26.3916 6.24021 25.7004 6.14844 24.7327 6.14844H23.2121C23.1199 6.14844 23.0738 6.19432 22.9817 6.33208C22.8895 6.42386 22.8434 6.51564 22.613 6.60741Z" fill="#333366"/>
<path id="Vector_4" d="M4.22451 4.86752L1.27539 18.6376C1.27539 18.6376 10.261 14.2312 11.3669 13.6803C13.6248 12.5328 16.7583 11.0181 19.6152 10.0083C20.1682 9.82467 22.5183 9.09027 23.9007 8.86083C24.4536 8.76905 24.6379 8.67718 24.6379 8.58541C24.6379 8.30998 24.085 8.2641 23.1634 8.30998C20.3986 8.44774 15.0994 10.5592 13.5787 11.3395L11.9199 6.06089H22.8869C23.3938 4.68387 16.3896 4.86752 16.1592 4.86752H4.22451Z" fill="#333366"/>
<path id="Vector_5" d="M37.1276 7.57351C35.3305 7.57351 34.2707 6.83911 34.6393 5.27854C35.2384 2.57038 35.607 0.734375 35.607 0.734375H37.0816C37.0816 0.734375 36.16 4.95722 36.206 4.81956C35.9756 5.87517 36.206 6.47191 37.358 6.5178C38.464 6.5178 39.0169 5.87517 39.2473 4.81956C39.3856 4.22282 40.1228 0.734375 40.1228 0.734375H41.5974C40.5836 5.27854 41.5974 0.734375 40.6297 5.27854C40.2611 6.83911 38.9248 7.57351 37.1276 7.57351Z" fill="#333366"/>
<path id="Vector_6" d="M47.542 7.43585H45.6527L43.9938 2.43271H43.9477L42.934 7.43585H41.5977L43.0261 0.734375H44.9615L46.5743 5.7834L47.6341 0.734375H48.9705L47.542 7.43585Z" fill="#333366"/>
<path id="Vector_7" d="M50.4443 7.43585H48.9697L50.3982 0.734375H51.8728L50.4443 7.43585Z" fill="#333366"/>
<path id="Vector_8" d="M58.3231 1.79009H56.2495L55.0514 7.43585H53.5308L54.7289 1.79009H52.6553L52.8857 0.734375H58.5535L58.3231 1.79009Z" fill="#333366"/>
<path id="Vector_9" d="M64.2222 1.79009H60.8123L60.4436 3.53431H63.3928L63.2085 4.54413H60.2132L59.8446 6.38013H63.2545L63.0241 7.43585H58.1396L59.5681 0.734375H64.4526L64.2222 1.79009Z" fill="#333366"/>
<path id="Vector_10" d="M67.1741 7.43476H64.1328L65.5613 0.6875H68.833C70.8605 0.6875 71.5517 2.01854 71.2752 3.76276C70.8605 6.1955 69.0173 7.43476 67.1741 7.43476ZM68.3261 1.7891H66.8055L65.8378 6.37905H66.8976C68.6026 6.37905 69.5703 5.27745 69.8007 3.76276C69.985 2.70705 69.5703 1.7891 68.3261 1.7891Z" fill="#333366"/>
<path id="Vector_11" d="M78.5052 1.79009H76.8924C76.0629 1.79009 75.6943 1.97373 75.6482 2.29495C75.4178 3.35066 78.3209 4.22282 78.0444 5.87518C77.9061 6.79322 77.0767 7.48174 75.2335 7.48174H72.9756L73.206 6.42602H75.0492C75.6021 6.42602 76.2934 6.47191 76.4316 5.87518C76.662 4.91134 73.805 3.9474 73.9893 2.34093C74.1276 1.377 75.0031 0.734375 76.7542 0.734375H78.7356L78.5052 1.79009Z" fill="#333366"/>
<path id="Vector_12" d="M84.9581 1.79009H82.8384L81.6403 7.43585H80.1657L81.3638 1.79009H79.2441L79.4745 0.734375H85.1885L84.9581 1.79009Z" fill="#333366"/>
<path id="Vector_13" d="M85.1888 7.43585L85.7878 6.38013H87.9075L87.3084 2.06551L84.3593 7.43585H82.8848L86.7555 0.734375H88.5065L89.5664 7.43585H85.1888Z" fill="#333366"/>
<path id="Vector_14" d="M95.6014 1.79009H93.5278L92.3298 7.43585H90.8091L92.0072 1.79009H89.9336L90.164 0.734375H95.8318L95.6014 1.79009Z" fill="#333366"/>
<path id="Vector_15" d="M101.5 1.79009H98.0896L97.721 3.53431H100.67L100.486 4.54413H97.4906L97.1219 6.38013H100.532L100.301 7.43585H95.3711L96.8455 0.734375H101.73L101.5 1.79009Z" fill="#333366"/>
<path id="Vector_16" d="M106.754 1.79009H105.187C104.358 1.79009 103.989 1.97373 103.943 2.29495C103.713 3.35066 106.616 4.22282 106.339 5.87518C106.201 6.79322 105.372 7.48174 103.528 7.48174H101.271L101.501 6.42602H103.344C103.897 6.42602 104.588 6.47191 104.727 5.87518C104.957 4.91134 102.1 3.9474 102.284 2.34093C102.423 1.377 103.298 0.734375 105.049 0.734375H107.031L106.754 1.79009Z" fill="#333366"/>
<path id="Vector_17" d="M35.0978 16.0647C34.8674 16.0647 34.591 16.0188 34.4067 16.0188L34.3145 15.0548C34.4988 15.0548 34.7292 15.1007 34.9596 15.1007C35.9734 15.1007 36.342 14.4122 36.4342 13.9991C36.5724 13.2647 36.2038 12.9893 35.6508 12.9893H34.4988L33.3007 18.6351H31.8262L33.2086 11.9336H36.4342C37.9087 11.9336 38.047 13.2188 37.8627 14.045C37.6323 15.3303 36.4802 16.0647 35.0978 16.0647Z" fill="#333366"/>
<path id="Vector_18" d="M41.1829 18.7737C39.1093 18.7737 37.9573 17.2131 38.3259 15.2853C38.8328 12.8985 40.5839 11.7969 42.6575 11.7969C44.7311 11.7969 45.9291 13.2657 45.5144 15.2853C45.0075 17.7181 43.3026 18.7737 41.1829 18.7737ZM42.4731 12.8526C41.1368 12.8526 40.2152 13.7246 39.8927 15.2853C39.5701 16.5705 40.0309 17.7181 41.4133 17.7181C42.7496 17.7181 43.6712 16.8 43.9938 15.2853C44.3163 13.9083 43.8095 12.8526 42.4731 12.8526Z" fill="#333366"/>
<path id="Vector_19" d="M50.9034 12.9893H49.3367C48.5073 12.9893 48.1386 13.173 48.0926 13.4943C47.8622 14.55 50.7652 15.422 50.4887 17.0745C50.3505 17.9924 49.521 18.681 47.6778 18.681H45.4199L45.6503 17.6252H47.4935C48.0465 17.6252 48.7377 17.6711 48.8759 17.0745C49.1063 16.1106 46.2494 15.1466 46.4337 13.5402C46.5719 12.5762 47.4474 11.9336 49.1985 11.9336H51.1799L50.9034 12.9893Z" fill="#333366"/>
<path id="Vector_20" d="M57.3563 12.9893H55.2827L54.0846 18.6351H52.564L53.8082 12.9893H51.6885L51.9189 11.9336H57.5867L57.3563 12.9893Z" fill="#333366"/>
<path id="Vector_21" d="M57.6772 18.6351L58.2302 17.5794H60.3499L59.7969 13.2647L56.8017 18.6351H55.3271L59.1979 11.9336H60.9489L62.0087 18.6351H57.6772Z" fill="#333366"/>
<path id="Vector_22" d="M67.3549 18.6351H62.793L64.2214 11.9336H65.7421L64.544 17.5794H67.5853L67.3549 18.6351Z" fill="#333366"/>
<path id="Vector_23" d="M75.4183 12.9893H73.8055C72.976 12.9893 72.6074 13.173 72.5613 13.4943C72.3309 14.55 75.234 15.422 74.9575 17.0745C74.8192 17.9924 73.9898 18.681 72.1466 18.681H69.8887L70.1191 17.6252H71.9623C72.5152 17.6252 73.2064 17.6711 73.3447 17.0745C73.5751 16.1106 70.7181 15.1466 70.9024 13.5402C71.0407 12.5762 71.9162 11.9336 73.6672 11.9336H75.6487L75.4183 12.9893Z" fill="#333366"/>
<path id="Vector_24" d="M81.5943 12.9893H78.1844L77.8157 14.7335H80.8109L80.5805 15.7434H77.6314L77.2167 17.5794H80.6266L80.3962 18.6351H75.5117L76.9402 11.9336H81.8247L81.5943 12.9893Z" fill="#333366"/>
<path id="Vector_25" d="M85.8788 15.7424L86.9847 18.6341H85.3719L84.1277 14.9621C84.312 15.008 84.5424 14.9621 84.6807 14.9621C85.464 14.9621 86.1552 14.6408 86.2935 13.8605C86.3856 13.4474 86.2935 12.9884 85.464 12.9884H84.1277L82.9296 18.6341H81.4551L82.8836 11.8867H86.017C87.3533 11.8867 87.8602 12.4835 87.768 13.5851C87.722 14.9162 86.8464 15.6047 85.8788 15.7424Z" fill="#333366"/>
<path id="Vector_26" d="M91.3664 18.6351H89.6153L88.6016 11.9336H90.0761L90.7673 17.3039L93.7625 11.9336H95.2371L91.3664 18.6351Z" fill="#333366"/>
<path id="Vector_27" d="M96.1533 18.6351H94.6787L96.1072 11.9336H97.5818L96.1533 18.6351Z" fill="#333366"/>
<path id="Vector_28" d="M103.621 13.0821C103.207 12.9444 102.746 12.8526 102.055 12.8526C100.718 12.8526 99.5663 13.7246 99.2438 15.2853C98.9212 16.8 99.7046 17.7181 101.041 17.7181C101.732 17.7181 102.331 17.6262 102.838 17.4885L102.469 18.636C101.916 18.7278 101.363 18.7737 100.81 18.7737C98.7369 18.7737 97.2163 17.7181 97.7231 15.2853C98.23 12.8526 100.211 11.7969 102.285 11.7969C102.792 11.7969 103.299 11.8428 103.76 11.9345L103.621 13.0821Z" fill="#333366"/>
<path id="Vector_29" d="M109.656 12.9893H106.246L105.877 14.7335H108.827L108.596 15.7434H105.647L105.278 17.5794H108.642L108.412 18.6351H103.527L104.956 11.9336H109.84L109.656 12.9893Z" fill="#333366"/>
<path id="Vector_30" d="M110.302 9.9161L110.394 9.45703H33.7632L33.6709 9.9161H110.302Z" fill="#EE3124"/>
<path id="Vector_31" d="M111.73 16.5255C111.73 15.5157 112.467 14.7354 113.481 14.7354C114.449 14.7354 115.232 15.5157 115.232 16.5255C115.232 17.5353 114.495 18.3156 113.481 18.3156C112.467 18.3156 111.73 17.5812 111.73 16.5255ZM111.361 16.5255C111.361 17.7189 112.329 18.6369 113.481 18.6369C114.633 18.6369 115.601 17.7189 115.601 16.5255C115.601 15.332 114.633 14.4141 113.481 14.4141C112.329 14.46 111.361 15.332 111.361 16.5255ZM112.652 17.7648H113.02V16.709H113.435L114.126 17.7648H114.541L113.85 16.6631C114.218 16.6173 114.495 16.4336 114.495 15.9746C114.495 15.5157 114.218 15.2861 113.619 15.2861H112.652V17.7648ZM113.02 15.6074H113.527C113.804 15.6074 114.08 15.6533 114.08 15.9746C114.08 16.3418 113.757 16.3877 113.435 16.3877H113.02V15.6074Z" fill="#333366"/>
</g>
</g>
<defs>
<clipPath id="clip0_1079_3196">
<rect width="116" height="20" fill="white"/>
</clipPath>
</defs>
</svg>
