<svg width="23" height="22" viewBox="0 0 23 22" fill="none" xmlns="http://www.w3.org/2000/svg">
<g id="Quote_request">
<g id="Quote_Request">
<path id="Vector" d="M12.1929 20.6018L10.2031 20.9997L10.6011 19.0099C10.7323 18.3537 11.0549 17.751 11.5281 17.2778L18.8528 9.95312L21.2498 12.3501L13.9251 19.6747C13.4519 20.148 12.8492 20.4705 12.1929 20.6018Z" stroke="white" stroke-width="1.69492" stroke-miterlimit="10" stroke-linecap="round" stroke-linejoin="round"/>
<path id="Vector_2" d="M16.5042 7.50882V6.08496" stroke="white" stroke-width="1.69492" stroke-miterlimit="10" stroke-linecap="round" stroke-linejoin="round"/>
<path id="Vector_3" d="M11.4195 1H2.94492C2.00886 1 1.25 1.75886 1.25 2.69492V19.3051C1.25 20.2411 2.00886 21 2.94492 21H6.74697" stroke="white" stroke-width="1.69492" stroke-miterlimit="10" stroke-linecap="round" stroke-linejoin="round"/>
<path id="Vector_4" d="M16.5042 6.08475H13.1144C12.1783 6.08475 11.4194 5.32589 11.4194 4.38983V1L16.5042 6.08475Z" stroke="white" stroke-width="1.69492" stroke-miterlimit="10" stroke-linecap="round" stroke-linejoin="round"/>
</g>
<path id="Vector_5" d="M4.63989 9.13574H13.1145" stroke="white" stroke-width="1.69492" stroke-miterlimit="10" stroke-linecap="round" stroke-linejoin="round"/>
<path id="Vector_6" d="M4.63989 12.5254H11.4875" stroke="white" stroke-width="1.69492" stroke-miterlimit="10" stroke-linecap="round" stroke-linejoin="round"/>
<path id="Vector_7" d="M4.63989 15.915H8.28275" stroke="white" stroke-width="1.69492" stroke-miterlimit="10" stroke-linecap="round" stroke-linejoin="round"/>
</g>
</svg>
