<svg width="24" height="24" viewBox="0 0 24 24" fill="none" xmlns="http://www.w3.org/2000/svg">
<g id="Icon">
<path id="Vector" d="M19.6064 9.43537V4.78837C19.6064 4.19337 19.1174 3.70737 18.5194 3.70737H17.4324C16.8344 3.70737 16.3454 4.19337 16.3454 4.78737V6.51737L12.7254 3.27537C12.5244 3.09792 12.2655 3 11.9974 3C11.7293 3 11.4704 3.09792 11.2694 3.27537L2.18241 11.4134C2.1008 11.4859 2.04322 11.5816 2.01731 11.6877C1.9914 11.7938 1.9984 11.9053 2.03736 12.0073C2.07632 12.1093 2.14541 12.1971 2.23545 12.2589C2.32548 12.3207 2.4322 12.3537 2.54141 12.3534H4.38941V19.9184C4.38941 20.5134 4.87841 20.9994 5.47641 20.9994H9.82441V15.5954C9.82441 15.0014 10.3134 14.5154 10.9114 14.5154H13.0844C13.6824 14.5154 14.1714 15.0014 14.1714 15.5954V20.9994H18.5194C19.1174 20.9994 19.6064 20.5134 19.6064 19.9194V12.3534H21.4544C21.9544 12.3534 22.1934 11.7374 21.8134 11.4134L19.6064 9.43537ZM9.82441 10.1914C9.8366 9.62299 10.0709 9.08201 10.4772 8.68435C10.8835 8.28668 11.4294 8.06399 11.9979 8.06399C12.5664 8.06399 13.1123 8.28668 13.5186 8.68435C13.9249 9.08201 14.1592 9.62299 14.1714 10.1914H9.82441Z" fill="white"/>
</g>
</svg>
