<svg width="38" height="39" viewBox="0 0 38 39" fill="none" xmlns="http://www.w3.org/2000/svg">
<g id="&#240;&#159;&#146;&#154; Icon">
<path id="search" fill-rule="evenodd" clip-rule="evenodd" d="M27.5423 25.9611C31.4323 20.834 31.0808 13.4162 26.4884 8.70286C21.5155 3.59905 13.4527 3.59905 8.47972 8.70286C3.50676 13.8067 3.50676 22.0816 8.47972 27.1854C13.0722 31.8988 20.2999 32.2593 25.2956 28.2672C25.3171 28.2922 25.3395 28.3167 25.3627 28.3405L32.1161 35.2714C32.7377 35.9095 33.7456 35.9095 34.3671 35.2714C34.9887 34.6335 34.9887 33.5992 34.3671 32.9611L27.614 26.0302C27.5906 26.0064 27.5667 25.9834 27.5423 25.9611ZM24.1341 10.9807C27.8442 14.7883 27.8442 20.9616 24.1341 24.7693C20.4242 28.5769 14.4091 28.5769 10.6992 24.7693C6.98917 20.9616 6.98917 14.7883 10.6992 10.9807C14.4091 7.17309 20.4242 7.17309 24.1341 10.9807Z" fill="white"/>
</g>
</svg>
