<svg width="42" height="42" viewBox="0 0 42 42" fill="none" xmlns="http://www.w3.org/2000/svg">
<circle cx="21" cy="21" r="20" fill="#F9F9F9" stroke="white"/>
<path d="M10.2379 17.7273H11.4844L13.3842 21.0334H13.4624L15.3622 17.7273H16.6087L13.9702 22.1449V25H12.8764V22.1449L10.2379 17.7273ZM23.5911 21.3636C23.5911 22.1402 23.449 22.8078 23.165 23.3665C22.8809 23.9228 22.4914 24.3513 21.9966 24.652C21.5042 24.9503 20.9443 25.0994 20.3169 25.0994C19.6872 25.0994 19.1249 24.9503 18.6301 24.652C18.1377 24.3513 17.7495 23.9216 17.4654 23.3629C17.1813 22.8042 17.0392 22.1378 17.0392 21.3636C17.0392 20.5871 17.1813 19.9207 17.4654 19.3643C17.7495 18.8056 18.1377 18.3771 18.6301 18.0788C19.1249 17.7782 19.6872 17.6278 20.3169 17.6278C20.9443 17.6278 21.5042 17.7782 21.9966 18.0788C22.4914 18.3771 22.8809 18.8056 23.165 19.3643C23.449 19.9207 23.5911 20.5871 23.5911 21.3636ZM22.5044 21.3636C22.5044 20.7718 22.4086 20.2734 22.2168 19.8686C22.0274 19.4614 21.767 19.1536 21.4355 18.9453C21.1065 18.7346 20.7336 18.6293 20.3169 18.6293C19.8979 18.6293 19.5239 18.7346 19.1948 18.9453C18.8657 19.1536 18.6053 19.4614 18.4135 19.8686C18.2241 20.2734 18.1294 20.7718 18.1294 21.3636C18.1294 21.9555 18.2241 22.455 18.4135 22.8622C18.6053 23.267 18.8657 23.5748 19.1948 23.7855C19.5239 23.9938 19.8979 24.098 20.3169 24.098C20.7336 24.098 21.1065 23.9938 21.4355 23.7855C21.767 23.5748 22.0274 23.267 22.2168 22.8622C22.4086 22.455 22.5044 21.9555 22.5044 21.3636ZM29.636 17.7273H30.7369V22.5107C30.7369 23.0196 30.6173 23.4706 30.3782 23.8636C30.1391 24.2543 29.8029 24.562 29.3697 24.7869C28.9364 25.0095 28.4286 25.1207 27.8462 25.1207C27.2662 25.1207 26.7596 25.0095 26.3263 24.7869C25.8931 24.562 25.5569 24.2543 25.3178 23.8636C25.0787 23.4706 24.9592 23.0196 24.9592 22.5107V17.7273H26.0565V22.4219C26.0565 22.7509 26.1287 23.0433 26.2731 23.299C26.4199 23.5547 26.627 23.7559 26.8945 23.9027C27.1621 24.0471 27.4793 24.1193 27.8462 24.1193C28.2156 24.1193 28.534 24.0471 28.8015 23.9027C29.0714 23.7559 29.2773 23.5547 29.4194 23.299C29.5638 23.0433 29.636 22.7509 29.636 22.4219V17.7273Z" fill="#47464A"/>
</svg>
