<svg width="80" height="80" viewBox="0 0 80 80" fill="none" xmlns="http://www.w3.org/2000/svg">
<path d="M69.9003 53.6C69.1003 62.5 62.667 68.3333 53.3337 68.3333H23.3337C14.1337 68.3333 6.66699 60.8666 6.66699 51.6666V28.3333C6.66699 19.2666 12.1337 12.9333 20.6337 11.8666C21.5003 11.7333 22.4003 11.6666 23.3337 11.6666H53.3337C54.2003 11.6666 55.0337 11.7 55.8337 11.8333C63.8003 12.7666 69.2003 18.3333 69.9003 26.4C70.0003 27.3666 69.2003 28.1666 68.2337 28.1666H63.067C59.867 28.1666 56.9003 29.4 54.767 31.6C52.2337 34.0666 50.967 37.5333 51.267 41C51.8003 47.0666 57.1337 51.8333 63.467 51.8333H68.2337C69.2003 51.8333 70.0003 52.6333 69.9003 53.6Z" fill="white"/>
<path d="M73.3334 36.5666V43.4333C73.3334 45.2666 71.8667 46.7666 70.0001 46.8333H63.4667C59.8667 46.8333 56.5667 44.2 56.2667 40.6C56.0667 38.5 56.8667 36.5333 58.2667 35.1666C59.5001 33.9 61.2001 33.1666 63.0667 33.1666H70.0001C71.8667 33.2333 73.3334 34.7333 73.3334 36.5666Z" fill="white"/>
</svg>
