<svg xmlns="http://www.w3.org/2000/svg" width="44" height="30" viewBox="0 0 44 30" fill="none">
  <path d="M22.4171 0H22.6547C24.8488 0.00800783 35.9664 0.0880866 38.9639 0.894208C39.8701 1.14023 40.6959 1.61978 41.3587 2.28492C42.0215 2.95007 42.4981 3.77752 42.741 4.68458C43.0106 5.69891 43.2001 7.04155 43.3282 8.42691L43.3549 8.70451L43.4136 9.39852L43.435 9.67613C43.6085 12.1158 43.6298 14.4007 43.6325 14.8999V15.1001C43.6298 15.6179 43.6058 18.0577 43.4136 20.5988L43.3923 20.8791L43.3683 21.1567C43.2348 22.6835 43.0373 24.1997 42.741 25.3154C42.4989 26.2228 42.0225 27.0507 41.3596 27.7159C40.6967 28.3812 39.8705 28.8605 38.9639 29.1058C35.8676 29.9386 24.0987 29.9973 22.4678 30H22.0888C21.264 30 17.8526 29.984 14.2758 29.8612L13.822 29.8452L13.5898 29.8345L13.1334 29.8158L12.6769 29.7971C9.71402 29.6663 6.89259 29.4555 5.59265 29.1031C4.68641 28.8581 3.86047 28.3792 3.19758 27.7144C2.53469 27.0496 2.05812 26.2224 1.81563 25.3154C1.51934 24.2023 1.32181 22.6835 1.18835 21.1567L1.16699 20.8764L1.14564 20.5988C1.0139 18.7901 0.940905 16.9776 0.926758 15.1642L0.926758 14.8358C0.932096 14.2619 0.953451 12.2787 1.09759 10.0899L1.11628 9.81493L1.12428 9.67613L1.14564 9.39852L1.20436 8.70451L1.23106 8.42691C1.35918 7.04155 1.5487 5.69624 1.8183 4.68458C2.06038 3.77715 2.53676 2.94931 3.19968 2.28405C3.8626 1.61879 4.68875 1.13949 5.59532 0.894208C6.89526 0.547202 9.71669 0.333659 12.6796 0.200196L13.1334 0.181511L13.5925 0.165496L13.822 0.157488L14.2785 0.138803C16.8188 0.057055 19.3603 0.0116724 21.9019 0.0026694H22.4171V0ZM18.0101 8.56838V21.429L29.1063 15.0013L18.0101 8.56838Z" fill="white" fill-opacity="0.7"/>
</svg>