<svg viewBox="0 0 33 33" fill="none" xmlns="http://www.w3.org/2000/svg">
<g id="youtube 1">
<path id="Vector" d="M31.033 9.16956C30.6873 7.88434 29.674 6.87122 28.389 6.52515C26.0414 5.88281 16.6508 5.88281 16.6508 5.88281C16.6508 5.88281 7.26057 5.88281 4.91297 6.50079C3.65265 6.8465 2.61463 7.88452 2.26892 9.16956C1.65112 11.517 1.65112 16.3852 1.65112 16.3852C1.65112 16.3852 1.65112 21.278 2.26892 23.6008C2.61499 24.8859 3.62793 25.899 4.91315 26.2451C7.28529 26.8876 16.6511 26.8876 16.6511 26.8876C16.6511 26.8876 26.0414 26.8876 28.389 26.2696C29.6742 25.9237 30.6873 24.9106 31.0334 23.6255C31.651 21.278 31.651 16.4099 31.651 16.4099C31.651 16.4099 31.6757 11.517 31.033 9.16956ZM13.661 20.8826V11.8878L21.4698 16.3852L13.661 20.8826Z" fill="white"/>
</g>
</svg>
